<svg xmlns="http://www.w3.org/2000/svg" viewBox="0 0 713.04 357.84"><defs><style>.cls-1{fill:#f7941e;}.cls-2{fill:#27aae1;}.cls-3{fill:#39b54a;}.cls-4{fill:#1c75bc;}.cls-5{fill:#2b3990;}.cls-6{fill:#903bcc;}.cls-7{fill:#2bb673;}.cls-8{fill:#ec008c;}.cls-9{fill:#009444;}.cls-10{fill:#00a79d;}.cls-11{fill:#00a651;}</style></defs><title>Ресурс 1</title><g id="Слой_2" data-name="Слой 2"><g id="OBJECTS"><path class="cls-1" d="M610.42,140.86c4.19,18.72,3.11,39.22-7.56,55.69-9.22,14.23-25.72,25.56-43,26.28-18.13.75-35.85-11.24-45.27-26.24-10-15.94-8.7-36.82-8.52-54.9a1.37,1.37,0,0,0-2.75,0c-.16,15.82-1.13,33.58,4.94,48.55,5.27,13,16.32,23.88,28.76,30.14,27,13.58,58.88-2.62,71.56-28.38,7.92-16.09,8.33-34.6,4.46-51.85-.39-1.72-3-1-2.65.73Z"/><path class="cls-1" d="M600.16,166.4c-1.08-4.93-4.06-9.95-9-11.86a8.53,8.53,0,0,0-10.81,3.65c-.87,1.59,1.57,3,2.43,1.42,2.09-3.84,6.62-3.46,9.68-1a14.51,14.51,0,0,1,5,8.59c.39,1.77,3.11,1,2.72-.75Z"/><path class="cls-1" d="M535,156.68a9.15,9.15,0,0,0-10.12-2.27c-4,1.6-6.13,5.54-6.67,9.63-.21,1.59,2.29,1.58,2.5,0,.78-5.9,7.66-10.89,12.52-5.59,1.09,1.19,2.86-.59,1.77-1.77Z"/><path class="cls-1" d="M594.39,177.26c-7.17,15.08-17.9,27.75-35.92,27.58-17.31-.16-29.91-10-35-26.38-.52-1.68-3.17-1-2.65.73,5.23,17,18,27.52,36,28.35,19.69.92,32-12.28,39.92-28.9.75-1.59-1.61-3-2.37-1.39Z"/><path class="cls-1" d="M525.45,175.23a20.14,20.14,0,0,1-6.86,3.51.69.69,0,0,0,.37,1.32,21.92,21.92,0,0,0,7.46-3.86c.69-.55-.28-1.51-1-1Z"/><path class="cls-1" d="M593.05,174.77a23.8,23.8,0,0,0,6.45,5.56.69.69,0,0,0,.69-1.19A22.75,22.75,0,0,1,594,173.8c-.56-.69-1.52.29-1,1Z"/><path class="cls-1" d="M601.36,154.89a6.56,6.56,0,0,1-3.69,4.56c-.82.38-.11,1.6.71,1.22a7.89,7.89,0,0,0,4.34-5.4c.2-.88-1.16-1.26-1.36-.37Z"/><path class="cls-1" d="M602.77,160.92A5.18,5.18,0,0,1,599,163.7c-.89.16-.51,1.52.37,1.36a6.51,6.51,0,0,0,4.61-3.43c.41-.8-.8-1.52-1.22-.71Z"/><path class="cls-1" d="M518.85,150.22a5.22,5.22,0,0,0,3.05,7.32c.85.26,1.21-1.07.37-1.32a3.82,3.82,0,0,1-2.23-5.3c.41-.78-.78-1.48-1.19-.69Z"/><path class="cls-1" d="M515.84,155.74a5.29,5.29,0,0,0,4.1,4.39c.86.18,1.23-1.14.37-1.32a4,4,0,0,1-3.14-3.43c-.12-.87-1.44-.5-1.32.37Z"/><path class="cls-1" d="M559.37,172.34a15.49,15.49,0,0,0-8.81.76c-.81.32-.46,1.65.37,1.32a14.16,14.16,0,0,1,8.08-.76c.86.17,1.23-1.15.37-1.32Z"/><path class="cls-1" d="M572.41,225.54c21.59-5.94,38.73,16.25,60.23,14.77,1.75-.12,1.77-2.87,0-2.75-21.78,1.5-38.69-20.79-61-14.67a1.37,1.37,0,0,0,.73,2.65Z"/><path class="cls-1" d="M632.37,239.54c.73,2.9,0,7,2.95,8.93a4,4,0,0,0,5.07-.46c1.19-1.34.36-2.28,2.46-1.24a12.54,12.54,0,0,0,3.53,1.52c2.81.47,5.11-1.12,6.38-3.56,2.59-5,.06-11.46-5.67-12.4-4.71-.77-12.2,1.07-14.67,5.47a1.37,1.37,0,0,0,2.37,1.39c1.69-3,6.33-3.92,9.51-4.16,2.64-.2,5.12.47,6.24,3.07,1,2.41.35,7.35-3.19,7.57-2.5.16-5.17-4.29-7.68-2.46-1.53,1.11-.07,2.72-2.52,1.6-1.94-.89-1.48-1.58-1.7-3.53a18.31,18.31,0,0,0-.45-2.48c-.43-1.71-3.08-1-2.65.73Z"/><path class="cls-1" d="M548.59,224.88c-22.87-2.22-35.55,22.76-57.14,25-1.74.18-1.76,2.93,0,2.75,21.57-2.2,34.72-27.14,57.14-25,1.76.17,1.75-2.58,0-2.75Z"/><path class="cls-1" d="M489.08,251.64c-.14,2,.82,4.69,0,6.55-1.29,2.91-2.33-.52-3.48-1.33-2.63-1.85-4.35,2.42-6.44,3.13-6.16,2.07-8-9.1-1.15-10.46,3.46-.69,9.06-.5,11.43,2.4,1.12,1.37,3.05-.58,1.94-1.94-3.28-4-11.77-4.5-16.21-2.42-5.2,2.44-5.77,9.67-1.9,13.61a5.83,5.83,0,0,0,6.47,1.56c1.47-.59,2.37-1.72,3.62-2.62s.1-1,1.1.2a8.7,8.7,0,0,0,.85,1.15,4,4,0,0,0,5.21-.46c2.45-2.45,1.07-6.37,1.28-9.36.13-1.76-2.62-1.76-2.75,0Z"/><path class="cls-1" d="M547.05,224.72a32.1,32.1,0,0,0,5.69,13.63c1.73,2.35,3.79,5.36,7,5.15,8.9-.58,12.68-12.94,13.53-20,.21-1.75-2.54-1.74-2.75,0-.58,4.89-4.36,18.78-11.59,16.83-5.49-1.48-8.4-11.49-9.25-16.33-.3-1.74-3-1-2.65.73Z"/><path class="cls-1" d="M615.75,158c3.11-2.73,7.4.67,8.13,3.82a10.74,10.74,0,0,1-.74,6c-1.57,4.05-4.74,7.5-9.45,6.87-.87-.12-.86,1.26,0,1.37,6.84.91,12.65-7,11.76-13.5-.66-4.8-6.44-9.29-10.67-5.58-.67.58.31,1.55,1,1Z"/><path class="cls-1" d="M615.92,164.1c1.86-.8,1.9,2.49,1.56,3.45a2.86,2.86,0,0,1-2.93,1.94c-.88,0-.88,1.33,0,1.37a4.38,4.38,0,0,0,4.51-4.39c.08-2.16-1.45-4.59-3.83-3.56-.81.35-.11,1.53.69,1.19Z"/><path class="cls-1" d="M504.47,143.22c11.29,1.62,22.35.13,31.94-6.35,10-6.75,17.11-17,23.56-26.94,1-1.49-1.42-2.87-2.37-1.39-6,9.25-12.52,18.77-21.59,25.27s-19.8,8.33-30.8,6.75c-1.73-.25-2.48,2.4-.73,2.65Z"/><path class="cls-1" d="M557.6,109.93c3.6,8.24,15.26,12.95,22.77,16.59a117.8,117.8,0,0,0,13.92,6c3.59,1.2,7.05,2.58,10.58,3.92,3,1.14,5.14,1.23,5.66,4.95.24,1.74,2.89,1,2.65-.73-.62-4.42-2.71-5.09-6.51-6.47-6.68-2.43-13.56-4.72-20-7.73-4.91-2.29-9.8-4.63-14.49-7.34-4.45-2.58-10.06-5.66-12.22-10.59-.71-1.62-3.07-.22-2.37,1.39Z"/><path class="cls-1" d="M507.81,179.53c-4.09-8.94-10.18-16.35-12.55-26.15-1.73-7.13-2.44-16.79-.5-23.91,4.84-17.75,22.91-29,38-37.1,19-10.2,42.18-12.39,62.09-3.37,17.29,7.83,30.78,23.34,35.31,41.86,5.28,21.63,2.14,54.51-23.38,61.54a1.37,1.37,0,0,0,.73,2.65c21.68-6,28.28-29.72,27.37-49.75-1-21.59-11-41-29-53.23-18.51-12.59-42.72-14.66-63.6-7-17.65,6.44-37.32,18.69-46.61,35.54-5.12,9.27-5,18.56-3.85,28.89.62,5.53,2.57,10.58,4.76,15.68,2.39,5.58,6.3,10.28,8.82,15.79.74,1.61,3.1.21,2.37-1.39Z"/><path class="cls-1" d="M629.84,122.42c1.77-2.62,6.27-1.21,7.48,1.26,1.5,3.08-1.18,7.88-4.69,5.5-1.47-1-2.84,1.38-1.39,2.37,5.53,3.74,10.85-3.13,8.78-8.5-1.89-4.92-9.43-6.66-12.56-2-1,1.47,1.39,2.84,2.37,1.39Z"/><path class="cls-1" d="M635.5,120.3c2.78-9.68,7.4-20.39,16.74-25.39s21.1-3.19,26.13,6.73c3.83,7.54,5.07,15.45,11.6,21.42A30.53,30.53,0,0,0,711.66,131l-1-2.34a37.19,37.19,0,0,1-37.21,6.49c-11.4-4.38-21.63-12.42-34.41-11.86-1.76.08-1.77,2.82,0,2.75,15.14-.65,26.57,11.37,41,13.77a40.2,40.2,0,0,0,32.55-9.2,1.39,1.39,0,0,0-1-2.34c-12.61.41-22.8-7.19-27.24-18.75-3-7.8-5.63-15.91-14.27-18.93-19.59-6.86-32.72,13-37.3,29a1.37,1.37,0,0,0,2.65.73Z"/><path class="cls-1" d="M503,112.16c-1.68-2.42-3.26-3.88-6.41-3.72-2.44.12-5.46.82-6.88,3-2.49,3.84,1.86,9.59,5.36,11.09,1.61.69,3-1.68,1.39-2.37-2.08-.9-5-3.87-4.7-6.38.19-1.73,2.36-2.28,3.8-2.5,2.41-.37,3.71.3,5.07,2.25,1,1.44,3.38.07,2.37-1.39Z"/><path class="cls-1" d="M498.62,108.6c-3.36-8.59-13.32-12.3-21.81-8.81-5,2.06-7.81,6-10.07,10.71-3.63,7.63-9,13-17.93,12.88-1.27,0-2,2-.69,2.56,8.08,3.48,17.07,5.35,25.87,4.07a23.75,23.75,0,0,0,8.87-3c3.61-2.18,5.12-6.37,8.58-8.47,1.51-.92.13-3.29-1.39-2.37-2.2,1.34-3.26,3.08-4.83,5a16.78,16.78,0,0,1-10.15,5.81c-8.51,1.74-17.71-.1-25.56-3.49l-.69,2.56c8.93.08,15.78-4.84,19.59-12.73,2.66-5.51,5.49-10.48,12-11.86s13.19,1.65,15.59,7.8c.64,1.63,3.29.92,2.65-.73Z"/><path class="cls-1" d="M637.67,120.66c5.68-3.93,10.67-10,16.87-13,10.6-5.1,15.7,6.39,22,12.36,8.93,8.5,20.92,13.31,33.28,12.33.88-.07.88-1.44,0-1.37a40.39,40.39,0,0,1-23.17-5.16c-7.45-4.18-11.59-10.15-17.32-16.13-11.51-12-22.81,3.18-32.32,9.75-.72.5,0,1.69.69,1.19Z"/><path class="cls-1" d="M636.37,120.68c5.08-6.37,10.07-14.67,17-19.15,4.94-3.17,11.1-3.86,15.82.23,3.06,2.65,4.79,6.46,6.79,9.89,6.35,10.91,19.64,17.87,31.76,20.44.86.18,1.23-1.14.37-1.32-8.41-1.78-18-6.15-24.56-11.82-6.18-5.36-7.94-14.41-14.62-19.15C655.15,90,642.36,111,635.39,119.71c-.55.68.42,1.66,1,1Z"/><path class="cls-1" d="M637.63,123.58a88.4,88.4,0,0,0,10.19-3.3c3.2-1.27,6.33-3.19,9.76-3.65,7.66-1,14.5,4.54,20.3,8.81,8.31,6.11,18.63,12.5,28.79,6.61a.69.69,0,0,0-.69-1.19c-14,8.14-26-7.51-37.42-13.21-4-2-8.42-3.31-12.88-2.1-6.28,1.69-12,5-18.41,6.72a.69.69,0,0,0,.37,1.32Z"/><path class="cls-1" d="M554.64,83.83c3.8,10-.83,24.75-7.71,32.55-8.17,9.27-21.48,9.09-32.4,12.66-7,2.3-14.55,6.77-16.9,14.28-2.57,8.2,2,17.4,5.86,24.45.42.78,1.61.08,1.19-.69-5.38-9.87-10.39-22.4-.29-31.12,9-7.76,21.79-7.23,32.41-11.3a28.36,28.36,0,0,0,16.43-16C556.51,101,559,91.56,556,83.47c-.31-.82-1.64-.46-1.32.37Z"/><path class="cls-1" d="M551.46,83.84a26.36,26.36,0,0,1-8.16,23.84c-7.09,6.37-17.28,7.33-25.84,10.76-6.68,2.68-13.52,6.24-18.95,11-5.92,5.22-4.91,10.77-5.74,18-.1.88,1.27.87,1.37,0,.67-5.93-.38-11.23,4.18-16,3.27-3.41,7.9-6,12-8.23,8.18-4.39,17.08-6,25.55-9.5a27.63,27.63,0,0,0,16.87-30.29c-.14-.87-1.47-.5-1.32.37Z"/><path class="cls-1" d="M547.25,84C545,96.6,536.07,104.81,524.08,108.3c-9.57,2.79-19.66,4-27.14,11.19-.64.61.33,1.58,1,1,9.61-9.24,23.69-8.16,35-14.1a30.77,30.77,0,0,0,15.7-22c.15-.86-1.17-1.24-1.32-.37Z"/><path class="cls-1" d="M453.39,125.89c6.11-.42,12.84-.93,17.71-5.09,2.43-2.08,3.36-4.79,5.23-7.29a10.17,10.17,0,0,1,14.3-2.33c.73.5,1.42-.69.69-1.19a11.62,11.62,0,0,0-14.27.57c-3.3,2.94-4.19,7.42-8,10.06-4.55,3.17-10.33,3.52-15.67,3.89-.88.06-.88,1.43,0,1.37Z"/><path class="cls-1" d="M455,126.37c6.51-1.18,13.47.11,19.79-2.16,5.85-2.09,8.37-8.4,14.73-9.44.87-.14.5-1.47-.37-1.32-6.49,1.06-8.86,7.26-14.73,9.44-6.24,2.32-13.31,1-19.79,2.16-.87.16-.5,1.48.37,1.32Z"/><path class="cls-1" d="M455.62,124.69A25.89,25.89,0,0,0,471,115.61c1.79-2.25,2.86-4.91,4.54-7.22,4.49-6.18,12.48-3.42,15.54,2.35.41.78,1.6.09,1.19-.69-2.73-5.17-9.6-8.87-15.07-5.29-3.12,2-4.32,5.89-6.38,8.82a24.62,24.62,0,0,1-15.57,9.78c-.87.17-.5,1.5.37,1.32Z"/><path class="cls-1" d="M555.48,83.86c.5,7.88,1.05,16.25,5.13,23.22,3.83,6.56,10.44,10.76,17.36,13.49,9,3.54,18.72,4.57,27.75,8,5.47,2.05,10,4.89,12.53,10.33s4.4,12.61,2.81,18.56a.69.69,0,0,0,1.32.37c1.93-7.27-.5-16.77-4.83-22.86-4.66-6.56-13.54-8.66-20.9-10.53-10-2.53-20.72-4.42-28.92-11.13-9-7.35-10.21-18.57-10.9-29.41-.06-.88-1.43-.88-1.37,0Z"/><path class="cls-1" d="M556.55,83c3.72,10.42,9.16,18.73,19.2,23.89,11.29,5.81,23.48,9.28,34.49,15.82,12.66,7.52,19.53,19.15,19.84,34,.15,7.18-1.29,14.21-6,19.77a45.26,45.26,0,0,1-14.59,11.2c-.79.39-.1,1.57.69,1.19,9.59-4.67,18.47-12.62,20.57-23.42,2.17-11.14-.23-24.47-7.25-33.56-7.88-10.21-22-15.92-33.59-20.52-6.17-2.43-12.55-4.59-18.08-8.34-7.21-4.89-11.08-12.36-13.94-20.37-.29-.83-1.62-.47-1.32.37Z"/><path class="cls-1" d="M563.47,83.58c4.51,4.94,9.17,10.06,15.15,13.24,6.39,3.4,13.77,4,20.5,6.44a56.93,56.93,0,0,1,31.22,28.3c.39.79,1.58.1,1.19-.69a58.39,58.39,0,0,0-26.43-26.54c-6.24-3.07-12.88-4.19-19.48-6.2-8.91-2.71-15.07-8.82-21.19-15.53-.6-.65-1.57.32-1,1Z"/><path class="cls-1" d="M514.16,152a13.33,13.33,0,0,1,4.76-3.39,1.38,1.38,0,0,0,.49-1.88,1.41,1.41,0,0,0-1.88-.49,15.16,15.16,0,0,0-5.32,3.82c-1.18,1.31.76,3.26,1.94,1.94Z"/><path class="cls-1" d="M596,149.24a8.07,8.07,0,0,1,3.93,3c1,1.45,3.38.07,2.37-1.39a11.23,11.23,0,0,0-5.57-4.27c-1.67-.59-2.39,2.06-.73,2.65Z"/><path class="cls-1" d="M545.46,224.8a136.71,136.71,0,0,1-16.27,36.12q-2.54,4-5.34,7.72c-1,1.31-3.89,4-4,6-.19,3.39,5.58,5.22,7.95,6.34,23.68,11.2,50.58,6.91,75,.65a1.39,1.39,0,0,0,.82-2q-15-28-28-57c-.72-1.61-3.09-.22-2.37,1.39q13,29,28,57l.82-2c-23.39,6-49.2,10.33-72.07,0-1.31-.59-6.42-2.37-6.79-3.61-.5-1.7,3.12-5.38,4.07-6.69A135.19,135.19,0,0,0,535.94,255a140.31,140.31,0,0,0,12.17-29.46,1.37,1.37,0,0,0-2.65-.73Z"/><path class="cls-1" d="M537,285.14a124.92,124.92,0,0,1,3.21,29.15c0,3-1.41,8.22.51,10.84,1.73,2.35,6.14,2.29,8.68,2.78,2,.39,4.5,1.46,6.23,0,2.41-2,2.89-9.19,3.45-12.11a96.74,96.74,0,0,0,1.09-28.41c-.18-1.74-2.93-1.76-2.75,0a95.06,95.06,0,0,1-.36,24,91.41,91.41,0,0,1-2.1,10.11c-.66,2.48-1.06,3.84-3.94,4a16,16,0,0,1-5.4-1c-4.17-1.78-2.71-6.36-2.68-10.09,0-3.47-.05-6.94-.3-10.4a127.56,127.56,0,0,0-3-19.49c-.39-1.72-3-1-2.65.73Z"/><path class="cls-1" d="M564.71,288a121.71,121.71,0,0,1,2.91,31.73c-.11,3-1,6.81,2.19,8.47,1.75.91,4.29,1,6.18,1.36,1.64.32,4.25,1.41,5.94.86,2.07-.67,2.33-3.35,2.82-5.24a91.29,91.29,0,0,0,2.2-12.4,129.3,129.3,0,0,0,.08-28.66c-.19-1.74-2.94-1.76-2.75,0a130.54,130.54,0,0,1,.53,21.43,111.52,111.52,0,0,1-1.33,12.33c-.45,2.67-.62,7.79-3,9.1-1.55.85-4.83,0-6.46-.58-2.86-1.09-3.35-1.81-3.72-4.85-.47-3.86.25-8.13.11-12.06a117.89,117.89,0,0,0-3-22.21c-.39-1.72-3-1-2.65.73Z"/><path class="cls-1" d="M545.86,326.49c-.18,1.08-.34,6-1.25,6.59-1.34.83-6.09-.36-7.9-.38-4.68,0-9.69,0-14.23,1.36-4.24,1.24-13.34,5.84-7,10.48,2.66,1.95,6.36,1.76,9.51,2.05,5.15.48,10.7,1.2,15.86.56,6.73-.84,10-6.6,7.55-12.91-.63-1.63-3.29-.92-2.65.73,1.91,5-1,9.2-6.4,9.55a75.15,75.15,0,0,1-9.71-.31c-3.72-.24-7.75-.25-11.23-1.63-3.29-1.31-1.34-2.75.7-4.18a16.91,16.91,0,0,1,5.67-2.09,48.34,48.34,0,0,1,10-.87c3.07,0,7.49,1.14,10.4.42,3.35-.83,2.88-5.92,3.34-8.65.29-1.73-2.35-2.47-2.65-.73Z"/><path class="cls-1" d="M575.82,330.38c0,3.08.82,5.68-2.81,6.89-1.88.62-4.45.47-6.43.85a37.39,37.39,0,0,0-12.28,4.69c-2.21,1.33-5.76,3.3-5.8,6.3,0,2.15,1.42,3.23,3.34,3.64,3.84.82,8.88-.29,12.74-.75,4.56-.55,9.53-1.06,13.9-2.53,5.9-2,3.57-8.58.33-12.14-1.19-1.31-3.13.64-1.94,1.94a5.61,5.61,0,0,1,2.08,3.89q1.35,1.91-.64,2.81c-1.21,1.44-3.06,1.46-4.79,1.81q-5.36,1.09-10.8,1.67c-2,.22-7.62,1.64-9.39.61-4.31-2.49,5-6.35,6.8-7.12a37.15,37.15,0,0,1,9.59-2.54c2.12-.29,5.34,0,7.3-1,2.89-1.44,1.6-6.36,1.56-9a1.37,1.37,0,0,0-2.75,0Z"/><path class="cls-1" d="M550,231.84c1.72,18.09-7.46,33.89-16.5,48.8a.69.69,0,0,0,1.19.69c9.16-15.1,18.42-31.17,16.68-49.49-.08-.87-1.46-.88-1.37,0Z"/><path class="cls-1" d="M556.75,242.32c-.27,7.61-2.38,14.75-4.61,22-2.07,6.71-3.21,13.75-5.5,20.36-.29.84,1,1.2,1.32.37,2.49-7.17,3.8-14.82,6-22.11,2.08-6.76,3.87-13.48,4.12-20.58,0-.88-1.34-.88-1.37,0Z"/><path class="cls-1" d="M562.5,242.7a145.86,145.86,0,0,0,3.52,43.4c.2.86,1.53.5,1.32-.37a144.6,144.6,0,0,1-3.47-43c.06-.88-1.31-.88-1.37,0Z"/><path class="cls-1" d="M568.34,233.72a165.87,165.87,0,0,0,17,49.6c.41.78,1.6.09,1.19-.69a164.7,164.7,0,0,1-16.85-49.27c-.15-.87-1.47-.5-1.32.37Z"/><path class="cls-1" d="M542.71,315c2.58.81,4.78,2.08,7.5,2.5a21.45,21.45,0,0,0,6.4,0c.87-.12.5-1.45-.37-1.32a19,19,0,0,1-7.5-.35c-2-.51-3.73-1.52-5.67-2.13-.85-.26-1.21,1.06-.37,1.32Z"/><path class="cls-1" d="M568.69,317.38a25.53,25.53,0,0,0,17.64-.12c.82-.3.47-1.63-.37-1.32a24.35,24.35,0,0,1-16.91.12c-.84-.3-1.19,1-.37,1.32Z"/><path class="cls-2" d="M408.79,196.5c-2.56-1.26-3.55-3.61-3.87-6.34a13.54,13.54,0,0,1-.13-1.83q-.34-1.63.31-.65c.54.26,1.22,1.29,1.75,1.7a1.38,1.38,0,0,0,1.88-.49c.91-1.83,2.17-4,4-5,4.4-2.42,4.89,2.4,4.11,5.12a10.43,10.43,0,0,1-8.66,7.25c-1.74.26-1,2.91.73,2.65,6.39-.95,12.39-7.46,10.84-14.22-.61-2.66-2.71-4.94-5.63-4.46-3.55.59-6.31,4.28-7.79,7.27l1.88-.49c-1.34-1-2.14-3-4.19-2.59-1.73.32-2,1.94-2,3.4-.06,4.36,1.19,9,5.36,11,1.58.78,3-1.59,1.39-2.37Z"/><path class="cls-2" d="M250.45,204.51c2.56-1.26,3.55-3.61,3.87-6.34a13.55,13.55,0,0,0,.13-1.83q.34-1.63-.31-.65c-.54.26-1.22,1.29-1.75,1.7a1.38,1.38,0,0,1-1.88-.49c-.91-1.83-2.17-4-4-5-4.4-2.42-4.89,2.4-4.11,5.12a10.43,10.43,0,0,0,8.66,7.25c1.74.26,1,2.91-.73,2.65-6.39-.95-12.39-7.46-10.84-14.22.61-2.66,2.71-4.94,5.63-4.46,3.55.59,6.31,4.28,7.79,7.27L251,195c1.34-1,2.14-3,4.19-2.59,1.73.32,2,1.94,2,3.4.06,4.36-1.19,9-5.36,11-1.58.78-3-1.59-1.39-2.37Z"/><path class="cls-2" d="M382.94,155c-2.13,16.12-5.4,30.49-16.54,42.94s-28.88,20.86-46,19.57c-17.95-1.35-32.85-15-40.49-30.66-8-16.44-4.7-34.73-1-51.84.38-1.72-2.27-2.46-2.65-.73-3.06,14-6.17,29-2.7,43.26,3.36,13.74,12.71,26.55,24.27,34.59,24,16.72,56.87,5.62,73.65-16.17,9.47-12.3,12.13-25.91,14.12-41,.23-1.75-2.52-1.73-2.75,0Z"/><path class="cls-2" d="M368.39,170.25c-.16-4.62-2.21-9.25-6.25-11.76-3.38-2.1-8.06-2.14-10.87.9-1.12,1.21.69,3,1.82,1.82,2.38-2.57,6.22-1.83,8.69.19a11.82,11.82,0,0,1,4,8.85c.06,1.65,2.63,1.66,2.57,0Z"/><path class="cls-2" d="M305.93,147.46a9.28,9.28,0,0,0-9.28-4.86c-4.39.49-7.5,3.84-9.12,7.73-.63,1.51,1.83,2.17,2.45.68,2.32-5.57,10.29-8.76,13.75-2.26.77,1.45,3,.16,2.2-1.28Z"/><path class="cls-2" d="M359.83,179.73c-10.18,13.43-23.66,23.54-41.32,19.32C302,195.1,292,183.1,290.36,166.35c-.17-1.74-2.92-1.76-2.75,0,1.71,17.93,12.39,31.13,30.16,35.35,19,4.5,33.41-6.06,44.42-20.58,1.07-1.41-1.32-2.78-2.37-1.39Z"/><path class="cls-2" d="M292.94,163.47a20.26,20.26,0,0,1-7.41,2.06c-.87.07-.88,1.45,0,1.37a22.13,22.13,0,0,0,8.11-2.24c.79-.39.1-1.58-.69-1.19Z"/><path class="cls-2" d="M359.18,176.76a23.87,23.87,0,0,0,5.17,6.76c.65.59,1.63-.37,1-1a22.8,22.8,0,0,1-5-6.48c-.4-.79-1.59-.09-1.19.69Z"/><path class="cls-2" d="M322.86,168.9a15.45,15.45,0,0,0-8.48-2.5.69.69,0,0,0,0,1.37,14.07,14.07,0,0,1,7.79,2.31c.74.48,1.43-.71.69-1.19Z"/><path class="cls-2" d="M385.15,165.59c2.33-1.32,4.5.6,5.49,2.58,1.2,2.4.5,4.8-.79,7-2.16,3.64-5.78,6.7-10.21,5.14-1.67-.59-2.39,2.07-.73,2.65,6.84,2.4,14-4.07,15.06-10.72.87-5.49-4.52-12.22-10.2-9a1.37,1.37,0,0,0,1.39,2.37Z"/><path class="cls-2" d="M383.71,171c2-.41,1.41,2.71.9,3.6a2.84,2.84,0,0,1-3.26,1.39.69.69,0,0,0-.37,1.32,4.36,4.36,0,0,0,5.31-3.24c.57-2.07-.34-4.94-3-4.41-.87.18-.5,1.5.37,1.32Z"/><path class="cls-2" d="M275.46,142c-4.39-5.18-12.18-.25-12.88,5.49-.81,6.59,3.05,14.41,10.24,14.75,1.77.09,1.76-2.66,0-2.75-4.15-.2-6.35-3.72-7.16-7.46-.49-2.25-.72-4.65.63-6.66,1.49-2.22,4.78-4.34,7.23-1.44,1.14,1.35,3.08-.6,1.94-1.94Z"/><path class="cls-2" d="M273.46,148.18c-2.18-1.45-4.08,1-4.32,3a4.36,4.36,0,0,0,3.78,5c.87.11.87-1.26,0-1.37a2.88,2.88,0,0,1-2.45-2.79c-.06-1.16.72-3.73,2.29-2.67.74.49,1.43-.7.69-1.19Z"/><path class="cls-2" d="M370.66,156.55a26.79,26.79,0,0,0-3.37-4.6c-1.19-1.31-3.13.64-1.94,1.94a23.4,23.4,0,0,1,2.94,4,1.37,1.37,0,0,0,2.37-1.39Z"/><path class="cls-2" d="M297.06,134.74A22.1,22.1,0,0,1,293,137a1.28,1.28,0,0,0-.46,1.74,1.31,1.31,0,0,0,1.74.46,22.1,22.1,0,0,0,4.09-2.28c1.33-.94.06-3.15-1.28-2.2Z"/><path class="cls-2" d="M278.09,136.39c-4.38-5-5.48-13.72-5.8-20a27.5,27.5,0,0,1,8.23-21.68c10.92-10.93,26.21-13.87,41.12-14.05,2.95,0,5.9,0,8.84.21s5.12,1.16,7.77,1.79c3.23.78,7.25-.31,10.54-.42,17.25-.6,32.7,5.47,43,19.86,11.54,16.2,14,46.56-8,55.54-1.71.69-1,3.5.77,2.8,18.52-7.54,22.3-30.6,16.08-47.69C394.67,96.47,380,82.82,362.73,80A70.36,70.36,0,0,0,350,79.27c-3.12.07-6.44.77-9.54.59-1.75-.1-3.05-.91-4.93-1.3a57.06,57.06,0,0,0-11-.85c-16.17-.15-32.8,2.53-45.05,13.93a30.37,30.37,0,0,0-10.15,23.41c.18,7.6,1.47,17.46,6.7,23.39,1.24,1.4,3.28-.65,2.05-2.05Z"/><path class="cls-2" d="M330.91,89.44c3.47,6.19,6.58,12.81,12.25,17.33s12.67,6.71,19.4,9.07c8.17,2.87,16.59,6.39,21.26,14.15,2.75,4.57,3.2,9.53,2.51,14.72-.33,2.49-.89,4.93-1.46,7.37-.41,1.78-.59,4.7-1.66,6.21h1.25l-.1.57c.71-.61-.32-1.63-1-1l-.13.12a.73.73,0,0,0-.11.88l.13.19a.74.74,0,0,0,1.25,0c1.74-2.48,2-7.35,2.64-10.28a33.72,33.72,0,0,0,.82-11.58c-1-6.93-5.54-12.68-11.26-16.49-7.14-4.76-15.7-6.5-23.49-9.84-4.4-1.89-8.72-4.27-12-7.85-3.8-4.15-6.3-9.41-9-14.28a.73.73,0,0,0-1.25.73Z"/><path class="cls-2" d="M335.9,86.12a35.92,35.92,0,0,0,15.85,12.73c8.1,3.24,17.12,3.55,25,7.46,8.77,4.37,12.77,13.39,15,22.52,2.51,10.26.49,21.26-7,28.95-.65.67.37,1.7,1,1,12-12.37,10.24-33.44.37-46.73-4.67-6.29-12.3-9-19.63-10.72-11.75-2.84-22-5.67-29.37-16-.54-.75-1.8,0-1.25.73Z"/><path class="cls-2" d="M338.37,80.69c-6.84,5.64-16.24,14-16,23.69,0,1.86,2.94,1.87,2.9,0-.17-8.8,9-16.55,15.2-21.64,1.44-1.19-.62-3.23-2.05-2.05Z"/><path class="cls-2" d="M324.52,100.66c-13-3.79-29.29,2.9-40,10.37-8.22,5.74-10.14,13.73-9.38,23.45.07.92,1.52.93,1.45,0-.76-9.64,1.24-17.19,9.45-22.73,10.25-6.92,25.73-13.28,38.08-9.69a.73.73,0,0,0,.39-1.4Z"/><path class="cls-2" d="M325.44,95.63c-10.6-5.14-22.34-4-33.08.18-8.85,3.43-17.91,8.3-21.64,17.52-.35.86,1.05,1.24,1.4.39,3.72-9.19,13.54-14,22.37-17.16,9.9-3.52,20.57-4.35,30.22.33.84.41,1.57-.84.73-1.25Z"/><path class="cls-2" d="M339.18,82.72c8.94,14.17,26.69,12.61,40,19.79,8.69,4.69,13.8,13.11,15.58,22.64a53.68,53.68,0,0,1,.85,14c-.11,1.33-2.51,15.78-5,14.85-.87-.33-1.25,1.07-.39,1.4l.59.22a.73.73,0,0,0,.71-.19c5.7-4.89,6-16.72,5.55-23.5-.55-8.17-2.54-16.29-7.71-22.82-12.53-15.8-38-9.86-48.92-27.16-.5-.79-1.75-.06-1.25.73Z"/><path class="cls-2" d="M367.87,280.62a104.5,104.5,0,0,0,10.84,19.12l.49-1.88c-3.12,1.32-6.17,2.74-9.15,4.35-2.46,1.33-6,4.7-8.64,5.28-5.14,1.12-7.76-3.74-10.32-7.15-2.17-2.89-4.23-5.85-6.23-8.85-1-1.46-3.36-.09-2.37,1.39,2.57,3.85,5.25,7.62,8.09,11.28,1.93,2.48,4.22,6.34,7.61,7,2.92.58,5.44-1.92,7.69-3.34a101.79,101.79,0,0,1,14.71-7.61,1.38,1.38,0,0,0,.49-1.88,104.5,104.5,0,0,1-10.84-19.12c-.7-1.62-3.07-.22-2.37,1.39Z"/><path class="cls-2" d="M336.57,295.34a23.56,23.56,0,0,0,1.89,7.74c.58,1.28,1.76,2.53,2.21,3.8,1.2,3.41-.23,3.71-3,5-3.84,1.84-9.07,5.52-12.85,2.76-3.22-2.36-6.06-7.72-8.5-10.83-1.09-1.39-3,.57-1.94,1.94l6.07,7.73c1.26,1.6,2.67,4.17,4.54,5.16,3.66,1.93,8.3-1.64,11.48-3.16,2.36-1.13,8.15-2.49,8.64-5.77.22-1.48-.73-2.27-1.4-3.4-2.27-3.79-4-6.4-4.4-11-.16-1.75-2.91-1.76-2.75,0Z"/><path class="cls-2" d="M370.83,304.85a20.43,20.43,0,0,0,24.47,10.71l-1.69-1q1.34,7.12,2.68,14.24c.65,3.41,1.14,7.05,3.18,10,2.3,3.28,8,6.37,11.32,2.69s1.73-11,.1-14.87a26.83,26.83,0,0,0-14.31-14c-1.61-.69-3,1.67-1.39,2.37,7.24,3.13,17.23,12.48,14.43,21.56-1.63,5.27-6.12,3.49-8.23-.22A22.59,22.59,0,0,1,399.1,329c-1-5-1.9-10.09-2.84-15.13a1.38,1.38,0,0,0-1.69-1,17.69,17.69,0,0,1-21.37-9.45c-.75-1.6-3.12-.21-2.37,1.39Z"/><path class="cls-2" d="M333.21,317.15c4,8.8,13.22,16.07,23.26,13.07l-1.69-1q1.34,7.12,2.68,14.24c.65,3.42,1.14,7,3.18,10,2.34,3.35,8,6.51,11.25,2.48,3.09-3.84,1.92-10.5.19-14.59a26.66,26.66,0,0,0-14.29-13.73c-1.61-.69-3,1.67-1.39,2.37,8,3.44,15.89,11.53,14.41,21-.35,2.22-1.22,3.07-2.65,3.69-2.26,1-4-.91-5.58-3.64a22.59,22.59,0,0,1-2.29-7.36c-1-5-1.9-10.09-2.84-15.13a1.39,1.39,0,0,0-1.69-1c-8.93,2.67-16.64-4.16-20.16-11.81-.74-1.6-3.11-.21-2.37,1.39Z"/><path class="cls-2" d="M352,211.61a141.59,141.59,0,0,0,10.89,48.28c1.54,3.65,3.76,7.12,5.17,10.8,1.27,3.31,1.86,6.08-1.32,8.49a28.42,28.42,0,0,1-5.49,2.81c-8.82,4-17.68,7.95-26.52,11.92l-12.38,5.56c-1.85.83-5.07,3.1-7.07,3.18-3.87.16-4.51-3.9-5.52-6.75-3-8.5-3.66-17.61-3.67-26.56,0-17.34,2.94-34.84-2.76-51.64-.56-1.67-3.22-1-2.65.73,5.52,16.27,2.75,33.26,2.67,50.05a97.27,97.27,0,0,0,1.93,21.66,55.52,55.52,0,0,0,3.12,9.8c.75,1.75,1.82,5.39,3.79,6.18,1.48.59,3.18-.51,4.47-1.09L329,299.45l24.76-11.12c5.38-2.42,13.78-4.42,17.26-9.59,3.17-4.71-.8-9.55-2.89-13.81a136.5,136.5,0,0,1-13.43-53.32c-.08-1.76-2.83-1.77-2.75,0Z"/><path class="cls-2" d="M303.86,214.53c-2.91,1-5.12,3.34-8,4.4A32.33,32.33,0,0,1,278.19,220c-9.87-2.28-17.78-9-25.2-15.46-1.32-1.16-3.27.77-1.94,1.94,7.78,6.83,16.08,13.76,26.41,16.17a33.88,33.88,0,0,0,14.52,0,25.18,25.18,0,0,0,6.34-1.77c2.19-1.08,3.95-2.84,6.27-3.67,1.65-.59.94-3.25-.73-2.65Z"/><path class="cls-2" d="M356,212.34c17.76,5.11,45,5.24,52.55-15.59.6-1.67-2.05-2.38-2.65-.73-7,19.23-33.07,18.3-49.17,13.67a1.37,1.37,0,0,0-.73,2.65Z"/><path class="cls-2" d="M342.83,214.92c-1.46,5.81-3.48,11.75-9.71,13.9-8.06,2.77-14.16-1.92-15.82-9.62-.37-1.73-3-1-2.65.73,1.72,8,7.42,13.42,16.11,12.32,9-1.13,12.73-8.69,14.72-16.6.43-1.71-2.22-2.45-2.65-.73Z"/><path class="cls-2" d="M348.77,212.63c-1.49,4.68-2.68,10.39-5.95,14.22a27.25,27.25,0,0,1-10.85,7c-11,3.73-19.09-5.92-20.61-15.82-.13-.87-1.46-.5-1.32.37,1.46,9.5,8.66,19.06,19.37,17.52,4.78-.69,9.93-3.77,13.38-7.07,4.26-4.06,5.59-10.47,7.31-15.86.27-.84-1.06-1.21-1.32-.37Z"/><path class="cls-2" d="M371.86,286a18.77,18.77,0,0,1-8.68,1.31c-.88-.07-.88,1.3,0,1.37a19.59,19.59,0,0,0,9-1.35c.81-.32.46-1.65-.37-1.32Z"/><path class="cls-2" d="M321.67,305.16c-.71,1.3-1.36,3.15-2.64,4-.73.49,0,1.68.69,1.19,1.54-1,2.27-2.93,3.13-4.5.42-.78-.76-1.47-1.19-.69Z"/><path class="cls-2" d="M323.42,105.39c7.82,10.29,19.23,15.76,30.5,21.45,12.65,6.38,26.11,14.45,29.41,29.33.38,1.73,3,1,2.65-.73-6.51-29.38-44-30.19-60.19-51.43-1.06-1.39-3.44,0-2.37,1.39Z"/><path class="cls-2" d="M323.21,103.84c-19.76.43-39.13,11.9-46.87,30.43-.68,1.63,2,2.34,2.65.73,7.25-17.35,25.81-28,44.22-28.42,1.77,0,1.77-2.79,0-2.75Z"/><path class="cls-2" d="M367.39,267q-29.52,13.95-59.8,26.15c-.81.33-.46,1.66.37,1.32q30.45-12.26,60.13-26.29c.8-.38.1-1.56-.69-1.19Z"/><path class="cls-2" d="M365.5,262.45q-29.77,12.57-60,24.06c-.82.31-.46,1.64.37,1.32q30.36-11.56,60.29-24.2c.81-.34.11-1.53-.69-1.19Z"/><path class="cls-2" d="M361.25,251.7a224.5,224.5,0,0,1-55.71,11.2c-.88.06-.88,1.44,0,1.37A226,226,0,0,0,361.62,253c.83-.28.48-1.61-.37-1.32Z"/><path class="cls-2" d="M358.44,246.42q-26.64,5.69-53.73,8.71c-.87.1-.88,1.47,0,1.37q27.26-3,54.1-8.76c.86-.18.5-1.51-.37-1.32Z"/><path class="cls-3" d="M342.66,45.39a.69.69,0,0,0,0-1.37.69.69,0,0,0,0,1.37Z"/><path class="cls-4" d="M59.46,127.86c-7.11,29.47.32,61.72,27.5,78.22,12.81,7.78,28,10.55,42.29,5.31a61.73,61.73,0,0,0,32-27.34c8.58-15.66,7.76-35.57,7.87-52.88a1.37,1.37,0,0,0-2.75,0c-.12,18.1.83,39-9.44,54.75-9.66,14.84-27.6,26.53-45.71,25.47-17.25-1-33.55-12.62-42.53-27-10.39-16.65-11.12-37.16-6.62-55.81.41-1.72-2.23-2.45-2.65-.73Z"/><path class="cls-4" d="M73.78,155a12.42,12.42,0,0,1,4.38-7.29c2.66-2,6.53-2.28,8.28,1.07.72,1.38,2.81.16,2.09-1.22a7.32,7.32,0,0,0-9.23-3.26c-4.24,1.58-6.85,5.85-7.85,10.06-.36,1.51,2,2.16,2.33.64Z"/><path class="cls-4" d="M137.84,146.41c5.78-5.44,12.81.89,13.17,7.29.1,1.76,2.85,1.77,2.75,0-.24-4.36-2.23-8.71-6.23-10.83a10.07,10.07,0,0,0-11.63,1.6c-1.29,1.21.65,3.15,1.94,1.94Z"/><path class="cls-4" d="M75.14,166.64c7.62,16.75,19.75,30.12,39.45,29.53,18-.54,30.91-10.9,36.42-27.77.55-1.68-2.1-2.41-2.65-.73-5.31,16.25-18.1,25.9-35.4,25.78-18-.13-28.53-13-35.45-28.19-.73-1.61-3.1-.21-2.37,1.39Z"/><path class="cls-4" d="M145.51,165.35a21.93,21.93,0,0,0,7.4,4c.85.26,1.21-1.06.37-1.32a20.13,20.13,0,0,1-6.8-3.62c-.68-.55-1.66.41-1,1Z"/><path class="cls-4" d="M77.94,161.83a22.75,22.75,0,0,1-6.26,5.24.69.69,0,0,0,.69,1.19,23.8,23.8,0,0,0,6.54-5.46c.56-.67-.4-1.65-1-1Z"/><path class="cls-4" d="M150.16,146.78a.69.69,0,0,0,0-1.37.69.69,0,0,0,0,1.37Z"/><path class="cls-4" d="M108.71,162.22a14.19,14.19,0,0,1,8.11-.38c.86.21,1.23-1.12.37-1.32a15.55,15.55,0,0,0-8.84.38c-.83.28-.47,1.61.37,1.32Z"/><path class="cls-4" d="M57.95,144.2c-4.61-4.17-11.21.5-11.93,5.91-.91,6.81,5,15.22,12.24,14.37,1.74-.2,1.76-3,0-2.75-4.4.51-7.26-2.72-8.66-6.53-.64-1.73-1.25-3.87-.64-5.69.86-2.54,4.27-5.88,7-3.37,1.31,1.18,3.26-.75,1.94-1.94Z"/><path class="cls-4" d="M56.92,150.58c-2.37-1.07-3.93,1.36-3.88,3.51a4.38,4.38,0,0,0,4.45,4.46c.88,0,.89-1.41,0-1.37a2.84,2.84,0,0,1-2.89-2c-.33-1-.21-4.23,1.63-3.4.8.36,1.5-.82.69-1.19Z"/><path class="cls-4" d="M169.94,149.34c3-2.4,6.19,1.48,6.8,3.89a7.77,7.77,0,0,1-.54,4.48c-1.38,3.93-4.49,8-9.16,7.16-1.73-.3-2.47,2.35-.73,2.65,7.12,1.24,13.1-5.77,13.34-12.61.21-5.83-6.42-11.74-11.65-7.52-1.38,1.11.58,3,1.94,1.94Z"/><path class="cls-4" d="M169.22,155c2-.75,2,2.3,1.56,3.39a2.84,2.84,0,0,1-3,1.89c-.88-.08-.87,1.29,0,1.37a4.34,4.34,0,0,0,4.63-4c.24-2-1.05-4.9-3.52-3.95-.82.31-.46,1.64.37,1.32Z"/><path class="cls-4" d="M128.92,302.45c-.15,5.2,1.08,12.26-1.69,16.87-4,6.72-14.32,11.42-21.25,14.28-1.61.67-.9,3.33.73,2.65,7.63-3.15,17-7.7,22.1-14.45,4-5.31,2.67-13.09,2.85-19.35.05-1.77-2.7-1.77-2.75,0Z"/><path class="cls-4" d="M107,335.87c4.17.3,8.43.55,12.44,1.81a22,22,0,0,1,5.42,2.46,16.34,16.34,0,0,1,3.15,2.61c1.37,1.3,1.34,2.68.56,3.5-3.65,5.47-21.64-5.42-22.37-11.23-.22-1.73-3-1.75-2.75,0,.75,6,6.63,9.15,11.43,11.81a27.42,27.42,0,0,0,9.08,3.4c2.09.32,6.82.78,8.59-1,3.07-3.11-2.51-8.6-4.81-10.38-5.9-4.58-13.08-5-20.26-5.49-1.76-.13-2.25,2.4-.49,2.52Z"/><path class="cls-4" d="M91.15,302.45c-.18,4.79,0,12.58-2.42,16.61-4,6.72-14.32,11.42-21.25,14.28-1.61.67-.9,3.33.73,2.65,7.63-3.15,17-7.7,22.1-14.45,3.7-4.86,3.36-13.13,3.58-19.09.07-1.77-2.68-1.77-2.75,0Z"/><path class="cls-4" d="M68.5,335.6c4.17.3,8.43.55,12.44,1.81a22,22,0,0,1,5.42,2.46,16.34,16.34,0,0,1,3.15,2.61c1.73,1.66,1,3.06.56,3.5-3.65,5.47-22.05-5.38-22.37-11.23a1.38,1.38,0,1,0-2.75,0c.75,6,6.63,9.15,11.43,11.81a27.41,27.41,0,0,0,9.08,3.4c2.09.32,6.82.78,8.59-1,3.07-3.11-2.51-8.6-4.81-10.38-5.9-4.58-13.51-4.55-20.63-5.63-.53-.08-1.88,2.54-.12,2.66Z"/><path class="cls-4" d="M74.13,142.46a23.38,23.38,0,0,1,3.75-3.31,1.41,1.41,0,0,0,.49-1.88,1.39,1.39,0,0,0-1.88-.49,26.67,26.67,0,0,0-4.31,3.74c-1.2,1.3.74,3.25,1.94,1.94Z"/><path class="cls-4" d="M146.08,136.07a25.25,25.25,0,0,0,4,3.59,1.38,1.38,0,0,0,1.88-.49,1.4,1.4,0,0,0-.49-1.88,22,22,0,0,1-3.49-3.16c-1.19-1.32-3.12.63-1.94,1.94Z"/><path class="cls-4" d="M95.7,210.55c3.69,7.47,8.8,14.2,17.88,14.32,8,.1,14.39-5.47,16.48-13a1.37,1.37,0,0,0-2.65-.73c-2,7.05-8.46,12-15.94,10.71-7-1.21-10.48-6.84-13.39-12.73-.78-1.59-3.15-.19-2.37,1.39Z"/><path class="cls-4" d="M92.91,207.18A73.45,73.45,0,0,0,66,221.12a1.39,1.39,0,0,0,0,1.94c2.24,2.24,5.51,7.32,8.85,8,2.83.56,6.63-2.23,9-3.3l-2.07-1.19a200.21,200.21,0,0,1-.78,31.3c-.44,4.12-2.3,9.26-1.68,13.38.35,2.34,2,3.1,4.19,3.33,9.69,1,20.17-2.13,29.8-2.9a68.15,68.15,0,0,1,31.19,4.69c1.08.43,1.84-.79,1.69-1.69-1.82-10.91-3.15-21.89-3.92-32.92q-.27-3.94-.46-7.88c-.1-2.19-1.25-5.31,2.46-5.44,1.9-.07,2.77,1.89,4.47,2,1,.07,2.17-.93,2.85-1.45a12.11,12.11,0,0,0,4-13.42c-2.12-6.51-12.64-8.13-18.39-10-1.69-.55-2.41,2.1-.73,2.65,4.12,1.34,8.73,2.48,12.56,4.58a8.13,8.13,0,0,1,1.88,13.2c-2.5,2.51-4.74-.44-7.71-.63-1.62-.1-2.83.11-3.74,1.6-1.41,2.31-.37,6.41-.25,8.85q.36,6.9,1,13.77c.81,8.64,2,17.23,3.38,25.79l1.69-1.69a68.51,68.51,0,0,0-23.47-5c-9.17-.28-18.2,1.55-27.27,2.55-2.2.24-4.4.45-6.6.55-3.81.18-5.29,0-5.32-4.8,0-3.92,1.11-8.11,1.46-12a200.81,200.81,0,0,0,.49-28.38,1.39,1.39,0,0,0-2.07-1.19c-2.74,1.22-5.89,3.29-8.69,1.62-2.12-1.27-4.13-4.13-5.88-5.87v1.94a70.1,70.1,0,0,1,25.67-13.24,1.37,1.37,0,0,0-.73-2.65Z"/><path class="cls-4" d="M82.81,273.23c0,5.09,0,10.18.07,15.27q0,4.21,0,8.43c0,1.36-.55,4.26.31,5.46,1.07,1.5,3.23,1.12,4.89,1.21l13.9.74c3.51.19,4.77.47,7.12-2.08a80,80,0,0,0,6.93-9.3l-2.51-.33c1.47,3.94,2.1,11.75,7.4,11.63,4.89-.12,9.55-1,14.49-.7,1.76.09,4.38.93,5.82-.4,2.39-2.2,2.06-9.22,2.34-12.18.5-5.3.83-10.62,1-15.94,0-1.77-2.7-1.77-2.75,0a175.61,175.61,0,0,1-1.71,22.17c-.35,2.26,0,3.47-2.82,3.72s-5.64-.26-8.38-.15c-2,.08-4.91.91-6.86.58-3.84-.64-4.75-6.47-5.86-9.45a1.39,1.39,0,0,0-2.51-.33,61.88,61.88,0,0,1-5.95,8.07c-2.76,2.89-5.9,1.93-9.69,1.73-3.29-.18-6.64-.19-9.93-.53-3.11-.32-2.45-1.18-2.46-3.92,0-7.9-.11-15.79-.11-23.69a1.37,1.37,0,0,0-2.75,0Z"/><path class="cls-4" d="M83.74,283.27a41.14,41.14,0,0,1,11.29-3c.87-.11.88-1.48,0-1.37a43.49,43.49,0,0,0-12,3.22c-.81.35-.11,1.53.69,1.19Z"/><path class="cls-4" d="M133.62,278.33a15.44,15.44,0,0,1,8.33,5c.54.7,1.51-.28,1-1a16.82,16.82,0,0,0-3.84-3.23A15.58,15.58,0,0,0,134,277c-.86-.2-1.23,1.12-.37,1.32Z"/><path class="cls-4" d="M115.7,271.05c-.23,2,.72,7.08-2.67,6.82-.88-.07-.88,1.31,0,1.37,4.55.34,3.73-5.39,4-8.2.1-.88-1.28-.87-1.37,0Z"/><path class="cls-4" d="M141.61,253.06a.69.69,0,0,0,0-1.37.69.69,0,0,0,0,1.37Z"/><path class="cls-4" d="M83.77,248.75a.69.69,0,0,0,0-1.37.69.69,0,0,0,0,1.37Z"/><path class="cls-4" d="M92,209.94c4.67,10.67,13,20.76,26.09,18.68,9.7-1.54,18.94-11,19.92-20.76.09-.88-1.29-.87-1.37,0-1,9.93-11.48,19.74-21.59,19.62-11.49-.14-17.72-8.76-21.86-18.23-.35-.81-1.54-.11-1.19.69Z"/><path class="cls-4" d="M184.36,211.38c1.43,2.47,3.85,3.29,6.59,3.42a13.54,13.54,0,0,0,1.84,0q1.65.23.62-.35c-.3-.52-1.37-1.12-1.82-1.63a1.38,1.38,0,0,1,.36-1.91c1.76-1,3.82-2.44,4.71-4.36,2.11-4.56-2.73-4.71-5.39-3.75a10.43,10.43,0,0,0-6.63,9.14c-.14,1.76-2.83,1.2-2.69-.55.5-6.44,6.58-12.88,13.44-11.8,2.69.42,5.12,2.36,4.83,5.31-.35,3.58-3.84,6.59-6.72,8.28l.36-1.91c1.11,1.27,3.11,1.93,2.87,4-.2,1.75-1.79,2.12-3.26,2.24-4.35.36-9.05-.56-11.39-4.59-.88-1.52,1.38-3.08,2.27-1.55Z"/><path class="cls-4" d="M52.51,239.79c2.47,1.43,3.3,3.84,3.43,6.58a13.52,13.52,0,0,1,0,1.84q.23,1.65-.35.62c-.52-.3-1.13-1.37-1.63-1.81a1.38,1.38,0,0,0-1.91.36c-1,1.76-2.44,3.82-4.36,4.72-4.55,2.12-4.72-2.72-3.76-5.39a10.43,10.43,0,0,1,9.14-6.65c1.76-.14,1.2-2.83-.55-2.69-6.44.51-12.87,6.6-11.78,13.46.43,2.69,2.37,5.12,5.31,4.83,3.58-.35,6.58-3.85,8.27-6.73l-1.91.36c1.27,1.11,1.93,3.11,4,2.87,1.75-.2,2.12-1.8,2.24-3.26.35-4.35-.58-9.05-4.6-11.38-1.52-.88-3.08,1.39-1.54,2.27Z"/><path class="cls-4" d="M54.47,143.16c-6-20.91-1.52-44.55,17.65-56.94a95.94,95.94,0,0,1,13.67-7.09c6.81-3,12.2-4.91,19.6-3,4.94,1.29,8.2-.85,12.83-2.39a47.09,47.09,0,0,1,19.33-2l-.69-2.56a51.8,51.8,0,0,0-9.06,5.19,1.39,1.39,0,0,0,.69,2.56c4.31.09,8.62.16,12.93.26,4.12.1,9,0,11.71,3.75l.49-1.88-2.93.49a1.39,1.39,0,0,0-.69,2.56l14.12,9.31.33-2.51-2-.11c-1.68-.59-2.38,2-.73,2.65a37.28,37.28,0,0,1,18.85,15.1l.82-2a7.42,7.42,0,0,1-5.64-.06,1.39,1.39,0,0,0-1.55,2l6.57,14.92.82-2-3.81-.23a1.39,1.39,0,0,0-2.07,1.19A39.27,39.27,0,0,0,177.64,133l1.32-1.74-3.79-1.51a1.39,1.39,0,0,0-2.3.61,7.62,7.62,0,0,0-.37,3.09c0-.63.9,6.73-1.32,4.83-1.34-1.14-3.29.79-1.94,1.94s3.05,1.58,4.65.39c3-2.26.83-6.49,1.62-9.52l-2.3.61A8.8,8.8,0,0,0,179,134a1.38,1.38,0,0,0,1.32-1.74,37.1,37.1,0,0,1-1.82-11.92l-2.07,1.19a7.68,7.68,0,0,0,5.93.5,1.4,1.4,0,0,0,.82-2l-6.57-14.92-1.55,2a11.86,11.86,0,0,0,7.1.06,1.39,1.39,0,0,0,.82-2,40.42,40.42,0,0,0-20.49-16.36l-.73,2.65c1.73.61,1.69.57,3.46.11a1.39,1.39,0,0,0,.33-2.51L151.4,79.74l-.69,2.56a9.45,9.45,0,0,0,4.32-.87,1.38,1.38,0,0,0,.49-1.88c-5.56-7.62-18.91-5.21-27-5.37l.69,2.56a51.79,51.79,0,0,1,9.06-5.19c1.37-.61.5-2.45-.69-2.56a49.07,49.07,0,0,0-20.06,2.13c-3.34,1.11-6.42,3.11-10,2.65-2.76-.35-5.2-1.62-8-1.59-5.78,0-11.35,2.92-16.52,5.24a79.23,79.23,0,0,0-15.63,8.83C49.59,99.7,46,123.48,51.82,143.89a1.37,1.37,0,0,0,2.65-.73Z"/><path class="cls-4" d="M61.76,129.32a39.13,39.13,0,0,1,7.76-15.89,35.9,35.9,0,0,1,5-4.93c1.35-1.08,11.65-8.56,12.49-3.17.23,1.46,2.24,1.13,2.65,0,1.5-4.19,4.52-9.36,9.74-6.53,2.31,1.25,4.22,3,6.61,4.14a1.39,1.39,0,0,0,2-1.55l-1.6-9.13-1.69,1.69a52.45,52.45,0,0,1,21.88,9.7,1.39,1.39,0,0,0,2-.82c1.16-3.58,2.29-8.17,6.43-4.49a71.86,71.86,0,0,1,6.64,6.81,1.38,1.38,0,0,0,2.3-.61l1.33-4.76-2,.82a33.11,33.11,0,0,1,12.78,15.22c.55,1.29,2.59.58,2.56-.69l1.89.53a25.19,25.19,0,0,1,1.21,2.71c.66,1.56,1.27,3.14,1.84,4.73,1,2.75,1.86,5.54,2.65,8.35a1.37,1.37,0,0,0,2.65-.73,120.46,120.46,0,0,0-3.9-11.63c-.82-2.06-1.53-4.88-3.25-6.32-2.37-2-5.91-.95-5.84,2.36l2.56-.69a35.52,35.52,0,0,0-13.77-16.2,1.39,1.39,0,0,0-2,.82l-1.33,4.76,2.3-.61a71.3,71.3,0,0,0-7.29-7.38c-1.17-1-2.82-2.85-4.45-3.11-4-.65-5.13,7-5.92,9.39l2-.82a54.15,54.15,0,0,0-22.54-10A1.4,1.4,0,0,0,103.8,93l1.6,9.13,2-1.55c-3.93-1.85-7.55-6.23-12.31-5.46s-6.68,5.6-8.07,9.5h2.65c-1.37-8.81-13.07-1.19-16.53,1.52a40.46,40.46,0,0,0-14,22.47c-.43,1.72,2.22,2.45,2.65.73Z"/><path class="cls-4" d="M119.42,77.72a63.52,63.52,0,0,0-11.71,3.4c-.81.32-.46,1.65.37,1.32A63.52,63.52,0,0,1,119.79,79c.87-.16.5-1.49-.37-1.32Z"/><path class="cls-4" d="M160.58,96.69a155.27,155.27,0,0,0,14.08,10.13c.75.48,1.44-.71.69-1.19a152.11,152.11,0,0,1-13.81-9.92c-.68-.55-1.66.42-1,1Z"/><path class="cls-4" d="M166.82,108.22A46.54,46.54,0,0,1,178,121.53a.69.69,0,0,0,1.19-.69,47.54,47.54,0,0,0-11.36-13.58c-.68-.56-1.66.41-1,1Z"/><path class="cls-4" d="M170.1,121.15a67.33,67.33,0,0,1,4.57,11.53.69.69,0,0,0,1.32-.37,69.28,69.28,0,0,0-4.71-11.86c-.4-.79-1.59-.09-1.19.69Z"/><path class="cls-4" d="M77.54,96.27C60.92,105.83,53,124.2,54.39,143c.07.88,1.44.88,1.37,0C54.38,124.66,62,106.8,78.24,97.45a.69.69,0,0,0-.69-1.19Z"/><path class="cls-4" d="M73.37,94.37C59.29,101.92,53.16,116.86,49,131.48a.69.69,0,0,0,1.32.37c4-14.28,10-28.91,23.73-36.29.78-.42.09-1.6-.69-1.19Z"/><path class="cls-4" d="M97.24,90.34a84.09,84.09,0,0,1,8.53,3.24c.8.36,1.5-.83.69-1.19A87.33,87.33,0,0,0,97.6,89c-.84-.27-1.21,1.06-.37,1.32Z"/><path class="cls-4" d="M103,88.4c8.11,3.35,17.58,5.06,23,12.61.51.71,1.71,0,1.19-.69-5.71-7.89-15.34-9.72-23.86-13.24-.82-.34-1.17,1-.37,1.32Z"/><path class="cls-4" d="M113.18,87.15a40.25,40.25,0,0,1,14.18,12.26c.51.71,1.7,0,1.19-.69A41.71,41.71,0,0,0,113.87,86c-.78-.41-1.48.78-.69,1.19Z"/><path class="cls-4" d="M123,88.78a46,46,0,0,1,5.85,8.45c.42.78,1.61.09,1.19-.69A47.6,47.6,0,0,0,124,87.81c-.58-.67-1.55.31-1,1Z"/><path class="cls-4" d="M168.38,123.6c2.21,4.7,2.52,9.82,2.74,14.94,0,.88,1.41.89,1.37,0-.23-5.38-.6-10.69-2.92-15.63-.38-.8-1.56-.1-1.19.69Z"/><path class="cls-4" d="M69.29,224.66c-3,.7-5.32,2.48-7.71,4.39l-9.42,7.54c-1.38,1.1.57,3,1.94,1.94l7.44-6c2.63-2.1,5.12-4.49,8.48-5.27,1.72-.4,1-3-.73-2.65Z"/><path class="cls-4" d="M154.62,222.33a28.69,28.69,0,0,0,29.18-8.8c1.16-1.32-.77-3.28-1.94-1.94a26,26,0,0,1-26.5,8.09,1.37,1.37,0,0,0-.73,2.65Z"/><path class="cls-4" d="M83,259.77A78.42,78.42,0,0,1,100.58,253a1.37,1.37,0,0,0-.73-2.65,81.48,81.48,0,0,0-18.21,7.09c-1.56.83-.17,3.21,1.39,2.37Z"/><path class="cls-4" d="M129,252.8a30.52,30.52,0,0,1,11.79,5.63c1.38,1.08,3.33-.85,1.94-1.94a33.69,33.69,0,0,0-13-6.34c-1.72-.41-2.45,2.23-.73,2.65Z"/><path class="cls-4" d="M114.43,236.89a1.37,1.37,0,0,0,0-2.75,1.37,1.37,0,0,0,0,2.75Z"/><path class="cls-4" d="M115.08,244.22a1.37,1.37,0,0,0,0-2.75,1.37,1.37,0,0,0,0,2.75Z"/><path class="cls-4" d="M115.08,250.81a1.37,1.37,0,0,0,0-2.75,1.37,1.37,0,0,0,0,2.75Z"/><path class="cls-5" d="M118.56,32.27c6.72,12.48,22.67,13.8,33.48,5.85,11.82-8.69,13.27-24.76,1.23-34.08-8.69-6.73-26.75-5.65-28.15,8-1.07,10.33,15.27,20.49,22.36,10.87,3.35-4.54,1.51-10.13-3.63-12.17-3.46-1.37-10.06,0-7.18,4.94a1.25,1.25,0,0,0,2.16-1.26q2.35-2.92,5.09-.9,3.63,1.91,2.56,6c-1.18,4.11-5.73,5.29-9.37,4.3-6.13-1.67-11.82-8.56-8.42-14.92,5.81-10.89,20.88-7,27,1.13C171.48,31.2,133,53.83,120.72,31c-.76-1.42-2.92-.16-2.16,1.26Z"/><path class="cls-6" d="M42.11,315.13C56,294.63,17.52,275.31,11,300.07c-2.25,8.51,4.52,21.69,15,17.87,7.65-2.8,9.19-17.51.15-19.44a6.22,6.22,0,0,0-7.79,6.2c0,3.21,3.39,8.16,6.4,4.29,1.07-1.38-.86-3.34-1.94-1.94q-3.45-2.32,0-4.16,2.23-4.08,5.73.42a8,8,0,0,1,1,4.58c-.32,6.2-6.23,9.77-11.59,6.05-6.71-4.66-5.76-14.76-.3-20,11.53-11.08,30.9,6.81,22.13,19.8-1,1.47,1.39,2.85,2.37,1.39Z"/><path class="cls-7" d="M682.18,327.67c-.7-13.51-13.38-21.79-26.25-20-14.49,2.05-23.9,15.13-17.81,29.24,4.41,10.22,20.35,17.93,28.69,7.26,6.51-8.33-2.73-25.2-13.67-21-5.07,1.94-7.14,7.46-3.93,12,2.34,3.3,9.47,6.16,9.5-.21a1.25,1.25,0,0,0-2.5,0q-2.54,2.33-4.3-.43-3.27-3.21-.48-7.3c2.79-3.25,7.36-2.43,10.31,0,4.52,3.72,6.95,11.89,2.23,16.38-9.21,8.77-22.33-1.23-24.68-11-6.31-26.3,39-31.12,40.4-4.9.08,1.6,2.58,1.61,2.5,0Z"/><path class="cls-8" d="M431.09,104.71c-2.83-6.63-5.68-13.46-6.51-20.68-.45-4-.43-9,2.09-12.31a6.76,6.76,0,0,1,11.95,6.05c-.31,1.07,1.1,2.35,2,1.35a15,15,0,0,1,3.8-3.42c3.16-1.66,7.22.35,6.8,4.09-.49,4.32-3.7,8-6.65,10.91-4.94,4.83-10.18,9.4-15.27,14.08-1.18,1.09.45,3,1.63,1.89,5.09-4.68,10.3-9.27,15.27-14.08,3.47-3.36,7-7.64,7.52-12.65.32-3.21-.94-6.25-4.17-7.3-4.24-1.38-7.94,1.67-10.56,4.58l2,1.35c2.69-9.31-8.47-17-15.48-9.37-8.77,9.57-.84,26.78,3.34,36.59.63,1.48,2.88.38,2.25-1.1Z"/><path class="cls-7" d="M421.55,230.62c.2-7.06,6.77-8.75,12.44-7.54,2.24.48,4.26,1.2,6.57.63,3.31-.81,5.43-3.78,7.37-6.34,1.43-1.9,2.94-4.38,5.14-5.49,3.58-1.8,7.52.19,11.18.7a17.55,17.55,0,0,0,14-4.34c1.23-1-.54-2.8-1.77-1.77-4.76,4-9.39,4.15-15.17,2.88-2.39-.53-4.79-1.2-7.24-.56-4.3,1.12-6.61,5.28-9.18,8.51-3.08,3.87-5.2,4.35-10.19,3.35-2.56-.51-4.83-.95-7.45-.29a10.48,10.48,0,0,0-8.16,10.25,1.25,1.25,0,0,0,2.5,0Z"/><path class="cls-1" d="M18.75,49.68c-4.09-3.55-11-4.69-14.73.1A8.44,8.44,0,0,0,6.37,62.07V59.91C.73,62.43-2.05,70,1.74,75.3s11.83,5.05,16.07.56L15.68,75a12.1,12.1,0,0,0,15,10c7.88-2.2,10.83-11.36,8.89-18.6l-1.84,1.41c5.92,2.55,13.93,5.42,19.24,0,5-5.08,2-12.73-1.05-18l-1.08,1.88c11.86.71,11.36-14,6.52-21-4.35-6.27-16.09-9.16-18.23.65l2.09-.55C31.4,19.91,11.9,31.94,15.81,49.25c.35,1.57,2.77.9,2.41-.66a15.81,15.81,0,0,1,25.27-16A1.27,1.27,0,0,0,45.58,32c1.84-8.43,11.48-3.75,14.4,1.09,3.26,5.41,4,16.65-5.1,16.11a1.26,1.26,0,0,0-1.08,1.88c2.53,4.4,5.39,10.48,1.3,14.81C50.72,70.54,44,67.78,39,65.65a1.27,1.27,0,0,0-1.84,1.41c1.41,5.27,0,11.79-5.11,14.67-5.42,3.08-13.14-.46-13.9-6.76A1.27,1.27,0,0,0,16,74.09c-3.42,3.63-9.68,3.74-12.42-.74-2.57-4.19-.3-9.36,4-11.28a1.26,1.26,0,0,0,0-2.16,5.67,5.67,0,0,1-1.17-8.85c3-3,7.51-2.22,10.52.39,1.21,1,3-.71,1.77-1.77Z"/><path class="cls-6" d="M470.26,307.25c2.82-2.85,4-7.91.62-10.9a6.25,6.25,0,0,0-9.2,1.15l1.6.1c-1.59-4.29-7.09-6.71-11.16-4.15s-4.3,8.51-1.18,11.86l.76-1.54a9,9,0,0,0-8.13,10.64c1.26,5.93,7.89,8.55,13.34,7.46l-1-1.43c-2.16,4.26-4.67,10-.92,14.23,3.52,3.92,9.32,2.06,13.35.08l-1.34-.89c-1.09,8.74,9.84,9.08,15.23,5.82,4.84-2.92,7.55-11.46.39-13.52l.31,1.57a13.59,13.59,0,0,0-12.25-22.66c-1.18.19-.8,2,.38,1.81a11.72,11.72,0,0,1,10.65,19.45.94.94,0,0,0,.31,1.57c6.15,1.76,2.23,8.67-1.49,10.6-4.16,2.15-12.51,2.16-11.67-4.54a.93.93,0,0,0-1.34-.89c-3.38,1.66-8,3.49-11,.26-3.22-3.46-.86-8.32.95-11.88a.94.94,0,0,0-1-1.43c-4,.79-8.72-.59-10.61-4.48-2-4.16,1-9.69,5.66-10a.94.94,0,0,0,.76-1.54c-2.52-2.71-2.31-7.34,1.14-9.15,3.22-1.7,6.94.22,8.15,3.5a.93.93,0,0,0,1.6.1,4.2,4.2,0,0,1,6.6-.44c2.08,2.35,1.29,5.66-.79,7.76-.83.85.38,2.24,1.22,1.39Z"/><path class="cls-9" d="M239.22,66.8c-.7-3.66-2.2-8.12-5.26-10.52-1.56-1.22-4.56-2.44-6.32-.92s-1.19,4.72-.66,6.55c1.15,4,4.65,6.46,8.26,8l.63-2.33c-3.73-.27-8.2-.43-11.07,2.45-2,2-3.74,6.83-1.77,9.34,4.6,5.87,13.24-2.31,14.17-7.2.24-1.29-1.66-2.34-2.28-1-2.34,5.21-2.46,15,5.6,15.23,7.07.16,4.1-10.07,2.1-13.54a1.25,1.25,0,0,0-2.16,1.26c2.14,3.87,9.43,10.57,13.78,5.8,5.53-6.07-2-11.11-7.24-12.87v2.41c5.48-2.18,9.32-10.11,3.9-14.7-6.24-5.28-12.7,6-14,10.65a1.25,1.25,0,0,0,2.41.66c1.15-4.23,2.89-8.43,7.71-8.83,2.36-.2,3.07-.44,3.74,2.1.85,3.26-1.54,6.54-4.46,7.7a1.26,1.26,0,0,0,0,2.41c3.25,1.1,10.51,6.25,4.59,8.34-3.72,1.32-6.55-1.75-8.32-4.94l-2.16,1.26c1.1,1.9,3.21,6.26,1.87,8.49q-4.79,2.62-6.4-3a10.71,10.71,0,0,1,1.15-7.22l-2.28-1a8.57,8.57,0,0,1-3.58,5.66c-1.57,1-6.09,2.7-6.37-1.09s3.78-5.91,6.91-6.13a29.25,29.25,0,0,1,4.11.13c1.19.09,1.77-1.84.63-2.33-2.84-1.21-10.65-6.57-6.6-9.83,3.43-2.76,6.54,7.66,6.9,9.55.3,1.58,2.71.91,2.41-.66Z"/><path class="cls-8" d="M230.39,285.65c3.67-1.06,8-2.94,10.13-6.27,1.1-1.7,2-4.92.18-6.49s-5.36-.46-7,.33c-3.56,1.68-5.56,5.34-6.69,8.92l2.46.33c-.07-3.74-.29-8.19-3.37-10.83-2.12-1.82-7.22-3.21-9.6-1-2.14,2-1.1,6,.15,8.19a10.66,10.66,0,0,0,8.57,5.27c1.47.14,1.59-2,.33-2.46-5.36-1.84-15.09-.79-14.47,7.09.55,7,10.38,3.13,13.59.87,1.3-.92.08-3.07-1.26-2.16-3.57,2.43-9.62,10-4.92,14.13,6.32,5.57,11.19-2.87,12.44-8.08l-2.28.3c2.7,5.32,10.32,7.71,14.58,2.64,5.48-6.52-6.76-12.34-11.45-13.19-1.57-.28-2.25,2.13-.66,2.41,2.9.52,9.2,2,10,5.62a4.29,4.29,0,0,1-4.25,5.48c-2.68,0-4.93-2-6.05-4.23a1.26,1.26,0,0,0-2.28.3c-.71,3-4.75,11.68-7.87,5.52-1.78-3.51,1-6.7,4-8.74l-1.26-2.16c-1.82,1.28-5.09,3.42-7.42,2.74-4.56-2.93-.29-7.35,4.26-7.15a13.31,13.31,0,0,1,4.63,1l.33-2.46a7.88,7.88,0,0,1-5.7-3.12c-.89-1.2-4.69-8.87,2.87-6.1,4.25,1.56,4.5,6.3,4.57,10.06a1.26,1.26,0,0,0,2.46.33,14.21,14.21,0,0,1,2.76-5.3c.71-.79,4.2-3.62,5.63-2.74s2.13,2,.1,3.95a15,15,0,0,1-3,2.39,20.44,20.44,0,0,1-5.11,2.14,1.25,1.25,0,0,0,.66,2.41Z"/><path class="cls-8" d="M683.24,194.47c-6-.88-11.79.88-12.75,7.73-.85,6.06,3.28,11.36,8.83,13.31,6,2.1,11.08-.31,13-6.5a12.48,12.48,0,0,0-6.77-14.79c-1.44-.71-2.71,1.45-1.26,2.16,3.63,1.79,6.22,5.17,6.08,9.36-.18,5.25-3.95,9.13-9.24,7.7-3.84-1-7.19-3.81-8-7.84-1.33-6.52,3.74-9.56,9.51-8.72,1.57.23,2.25-2.18.66-2.41Z"/><path class="cls-8" d="M685.29,195.35c-.35-2.33.85-4.72,1.61-6.85l2.15-6c.54-1.52-1.87-2.17-2.41-.66-1.56,4.37-4.46,9.48-3.76,14.22.23,1.59,2.64.91,2.41-.66Z"/><path class="cls-8" d="M691.26,202.64a90.4,90.4,0,0,1,13.16-1.41c1.6-.05,1.61-2.55,0-2.5a95,95,0,0,0-13.83,1.49c-1.58.29-.91,2.7.66,2.41Z"/><path class="cls-8" d="M689.4,213.59q6.72,5.16,13,10.84c1.19,1.08,3-.69,1.77-1.77q-6.53-5.89-13.51-11.23c-1.28-1-2.52,1.19-1.26,2.16Z"/><path class="cls-8" d="M679.53,215.9a60.78,60.78,0,0,1-.25,12c-.19,1.59,2.31,1.58,2.5,0a60.78,60.78,0,0,0,.25-12c-.12-1.59-2.63-1.61-2.5,0Z"/><path class="cls-8" d="M673.27,209.76c-2-.1-3.79,1.28-5.49,2.19l-6.91,3.71c-1.42.76-.16,2.92,1.26,2.16l5.28-2.84c1.53-.82,4.09-2.81,5.85-2.72,1.61.08,1.6-2.42,0-2.5Z"/><path class="cls-8" d="M657.1,201l13.74,3.28c1.56.37,2.23-2,.66-2.41l-13.74-3.28c-1.56-.37-2.23,2-.66,2.41Z"/><path class="cls-8" d="M669.88,182.19,674,197a1.25,1.25,0,0,0,2.41-.66l-4.09-14.79a1.25,1.25,0,0,0-2.41.66Z"/><path class="cls-10" d="M567.82,16.4c-.39-7.87,8.11-10.51,14.15-7.61,3.36,1.61,6.3,3.88,10,4.73a19.38,19.38,0,0,0,16.85-4.4l-1.76-1c-1,4.32-1.75,8.81-3.13,13A19.24,19.24,0,0,1,591.21,33.5c-12.24,4.09-19.16-7.4-23.67-16.71a1.07,1.07,0,0,0-1.44-.38,36.08,36.08,0,0,0-6.82,4.4c-.78.63-.07,1.73.75,1.8a60.32,60.32,0,0,0,7.14.18c1.35,0,1.36-2.16,0-2.11A60.35,60.35,0,0,1,560,20.5l.75,1.8a33.33,33.33,0,0,1,6.39-4.07l-1.44-.38C570.42,27.55,577.65,39,590.23,36a23,23,0,0,0,13-8.43c3.73-5.3,4.44-12.74,5.86-18.89a1.06,1.06,0,0,0-1.76-1,17,17,0,0,1-17.42,3c-4-1.61-7.41-4.72-11.76-5.32-6.43-.87-12.75,4.61-12.43,11.12.07,1.35,2.18,1.36,2.11,0Z"/><path class="cls-10" d="M574.77,18.31a1.06,1.06,0,0,0,0-2.11,1.06,1.06,0,0,0,0,2.11Z"/><path class="cls-10" d="M594.43,34.45a21.4,21.4,0,0,1,6,9.27c.42,1.29,2.46.74,2-.56A23.53,23.53,0,0,0,595.92,33c-1-.91-2.5.58-1.49,1.49Z"/><path class="cls-10" d="M588.93,36a14.47,14.47,0,0,1,3.68,8c.18,1.34,2.22.77,2-.56a16.38,16.38,0,0,0-4.22-8.9c-.92-1-2.41.49-1.49,1.49Z"/><path class="cls-10" d="M588.54,24.2c1.5.08,2.48,1.23,4.07,1.08a8.55,8.55,0,0,0,3.79-1.58c2.11-1.38,4.19-3,4.73-5.59.28-1.33-1.76-1.89-2-.56-.47,2.22-2.52,3.61-4.37,4.71a4.18,4.18,0,0,1-4.1.42,6.28,6.28,0,0,0-2.09-.59c-1.36-.07-1.35,2,0,2.11Z"/><path class="cls-11" d="M664.77,18.77C661,16.54,656.18,12.94,652.1,17c-2.67,2.65-.17,7.69,2.81,9l.29-2.2c-3.74,1.16-8.39,3-8.49,7.61-.11,4.81,4.45,7,8.54,7.5l-1.16-1.52c-1,5.16-1,10.86,4.28,13.65,4.56,2.41,9.4.27,11.91-3.89l-1.89.24c3.69,3,9.56,7.46,14.58,4.45,4-2.41,2.07-8,.48-11.29l-1,1.81c4-.17,9.41-.89,10.51-5.64S689.55,29.1,685.7,28l.53,2c8.13-7.89-3.49-19.56-11.42-11.48l2,.53a9.15,9.15,0,0,0-10.56-7.5c-4.32.82-5.78,5.4-3.14,8.84.93,1.21,3,0,2.08-1.21-2.44-3.18,1.2-5.73,4.48-4.83a6.87,6.87,0,0,1,4.81,5.34,1.21,1.21,0,0,0,2,.53,5.71,5.71,0,1,1,8,8.08,1.21,1.21,0,0,0,.53,2c2.75.78,9.14,3.93,3.54,8.39C687,40,684.26,39.89,682.41,40a1.22,1.22,0,0,0-1,1.81c1.71,3.57,2.48,9.37-3.43,8.35-3-.52-5.54-2.57-7.85-4.43a1.22,1.22,0,0,0-1.89.24c-2.68,4.43-7.65,4.91-10.64.8-2.08-2.85-1.78-5.32-1.15-8.7a1.23,1.23,0,0,0-1.16-1.52c-3.73-.49-8.65-4.6-3.34-8.83a12.55,12.55,0,0,1,3.93-1.55c.9-.28,1.29-1.75.29-2.2-4.84-2.16-1.52-7.65,3.36-5.66a33.32,33.32,0,0,1,4.07,2.57,1.2,1.2,0,0,0,1.21-2.08Z"/><path class="cls-11" d="M668.66,36c3.1,0,3.1-4.81,0-4.81s-3.1,4.81,0,4.81Z"/></g><g id="DESIGNED_BY_FREEPIK" data-name="DESIGNED BY FREEPIK"><path class="cls-4" d="M361.16,372.46"/></g></g></svg>