<svg xmlns="http://www.w3.org/2000/svg" viewBox="0 0 688.47 220.24"><defs><style>.cls-1{isolation:isolate;}.cls-2{fill:#213b4a;}.cls-16,.cls-3{fill:#fff;}.cls-3{opacity:0.15;}.cls-4{fill:#83ba13;}.cls-5{fill:#487d0f;}.cls-6{fill:#fdd000;}.cls-14,.cls-7{fill:#ffdd50;}.cls-19,.cls-7{mix-blend-mode:multiply;}.cls-8{fill:#368dff;}.cls-9{fill:#f74b0f;}.cls-10{fill:#fe8514;}.cls-11{fill:#1c686b;}.cls-12{fill:#247f7f;}.cls-13{fill:#2c9693;}.cls-15{fill:#d83901;}.cls-17{fill:#de7c00;}.cls-18{fill:#b16c00;}</style></defs><title>Ресурс 1</title><g class="cls-1"><g id="Слой_2" data-name="Слой 2"><g id="Objects"><rect class="cls-2" y="204.15" width="688.47" height="16.09"/><path class="cls-3" d="M227.87,117.11a8.93,8.93,0,0,0-4,1,21.06,21.06,0,0,0-34.66-19.84,29.17,29.17,0,0,0-57.09,11.23,14.58,14.58,0,1,0-9.52,25.62H227.87a9,9,0,0,0,0-18Z"/><path class="cls-3" d="M39.7,28.12a6.22,6.22,0,0,1,2.79.66A14.67,14.67,0,0,1,66.63,15a20.31,20.31,0,0,1,39.76,7.82A10.15,10.15,0,1,1,113,40.63H39.7a6.26,6.26,0,1,1,0-12.51Z"/><path class="cls-3" d="M460.59,117.11a8.93,8.93,0,0,1,4,1,21.06,21.06,0,0,1,34.66-19.84,29.17,29.17,0,0,1,57.09,11.23,14.58,14.58,0,1,1,9.52,25.62H460.59a9,9,0,0,1,0-18Z"/><path class="cls-3" d="M648.76,28.12a6.22,6.22,0,0,0-2.79.66A14.67,14.67,0,0,0,621.84,15a20.31,20.31,0,0,0-39.76,7.82,10.15,10.15,0,1,0-6.63,17.84h73.31a6.26,6.26,0,0,0,0-12.51Z"/><path class="cls-4" d="M125.06,180.05a24.1,24.1,0,0,0-24.1,24.1h48.19A24.1,24.1,0,0,0,125.06,180.05Z"/><path class="cls-5" d="M163.13,171.32a32.83,32.83,0,0,0-32.83,32.83H196A32.83,32.83,0,0,0,163.13,171.32Z"/><path class="cls-4" d="M563.4,180.05a24.1,24.1,0,0,1,24.1,24.1H539.3A24.1,24.1,0,0,1,563.4,180.05Z"/><path class="cls-5" d="M525.34,171.32a32.83,32.83,0,0,1,32.83,32.83H492.51A32.83,32.83,0,0,1,525.34,171.32Z"/><rect class="cls-6" x="182.52" y="94.58" width="323.42" height="98.55"/><rect class="cls-7" x="182.52" y="100.71" width="323.42" height="2.77"/><rect class="cls-8" x="207.24" y="110.85" width="22.2" height="22.2"/><polygon class="cls-3" points="207.24 110.85 229.44 133.05 229.44 110.85 207.24 110.85"/><rect class="cls-9" x="203.98" y="133.05" width="28.71" height="4.59" rx="2.22" ry="2.22"/><rect class="cls-9" x="203.98" y="106.26" width="28.71" height="4.59" rx="2.22" ry="2.22"/><rect class="cls-8" x="255.85" y="110.85" width="22.2" height="22.2"/><polygon class="cls-3" points="255.85 110.85 278.05 133.05 278.05 110.85 255.85 110.85"/><rect class="cls-9" x="252.6" y="133.05" width="28.71" height="4.59" rx="2.22" ry="2.22"/><rect class="cls-9" x="252.6" y="106.26" width="28.71" height="4.59" rx="2.22" ry="2.22"/><rect class="cls-8" x="207.24" y="155.76" width="22.2" height="22.2"/><polygon class="cls-3" points="207.24 155.76 229.44 177.96 229.44 155.76 207.24 155.76"/><rect class="cls-9" x="203.98" y="177.96" width="28.71" height="4.59" rx="2.22" ry="2.22"/><rect class="cls-9" x="203.98" y="151.17" width="28.71" height="4.59" rx="2.22" ry="2.22"/><rect class="cls-8" x="255.85" y="155.76" width="22.2" height="22.2"/><polygon class="cls-3" points="255.85 155.76 278.05 177.96 278.05 155.76 255.85 155.76"/><rect class="cls-9" x="252.6" y="177.96" width="28.71" height="4.59" rx="2.22" ry="2.22"/><rect class="cls-9" x="252.6" y="151.17" width="28.71" height="4.59" rx="2.22" ry="2.22"/><rect class="cls-8" x="410.42" y="110.85" width="22.2" height="22.2"/><polygon class="cls-3" points="410.42 110.85 432.62 133.05 432.62 110.85 410.42 110.85"/><rect class="cls-9" x="407.16" y="133.05" width="28.71" height="4.59" rx="2.22" ry="2.22"/><rect class="cls-9" x="407.16" y="106.26" width="28.71" height="4.59" rx="2.22" ry="2.22"/><rect class="cls-8" x="459.03" y="110.85" width="22.2" height="22.2"/><polygon class="cls-3" points="459.03 110.85 481.23 133.05 481.23 110.85 459.03 110.85"/><rect class="cls-9" x="455.77" y="133.05" width="28.71" height="4.59" rx="2.22" ry="2.22"/><rect class="cls-9" x="455.77" y="106.26" width="28.71" height="4.59" rx="2.22" ry="2.22"/><rect class="cls-8" x="410.42" y="155.76" width="22.2" height="22.2"/><polygon class="cls-3" points="410.42 155.76 432.62 177.96 432.62 155.76 410.42 155.76"/><rect class="cls-9" x="407.16" y="177.96" width="28.71" height="4.59" rx="2.22" ry="2.22"/><rect class="cls-9" x="407.16" y="151.17" width="28.71" height="4.59" rx="2.22" ry="2.22"/><rect class="cls-8" x="459.03" y="155.76" width="22.2" height="22.2"/><polygon class="cls-3" points="459.03 155.76 481.23 177.96 481.23 155.76 459.03 155.76"/><rect class="cls-9" x="455.77" y="177.96" width="28.71" height="4.59" rx="2.22" ry="2.22"/><rect class="cls-9" x="455.77" y="151.17" width="28.71" height="4.59" rx="2.22" ry="2.22"/><polygon class="cls-10" points="512.44 94.75 176.02 94.75 197.22 50.79 491.25 50.79 512.44 94.75"/><path class="cls-11" d="M182.25,193.13h324a10.66,10.66,0,0,1,10.66,10.66v.36a0,0,0,0,1,0,0H171.59a0,0,0,0,1,0,0v-.36A10.66,10.66,0,0,1,182.25,193.13Z"/><rect class="cls-9" x="171.59" y="94.75" width="345.29" height="5.96" rx="2.88" ry="2.88"/><rect class="cls-9" x="193.2" y="44.83" width="302.07" height="5.96" rx="2.88" ry="2.88"/><path class="cls-12" d="M280.54,198.64H407.93a5.33,5.33,0,0,1,5.33,5.33v.18a0,0,0,0,1,0,0h-138a0,0,0,0,1,0,0V204A5.33,5.33,0,0,1,280.54,198.64Z"/><path class="cls-13" d="M289.61,193.13H398.85a5.33,5.33,0,0,1,5.33,5.33v.18a0,0,0,0,1,0,0H284.28a0,0,0,0,1,0,0v-.18A5.33,5.33,0,0,1,289.61,193.13Z"/><polygon class="cls-14" points="292.87 76.02 344.23 36.03 395.6 76.02 395.6 193.13 292.87 193.13 292.87 76.02"/><path class="cls-11" d="M344.18,3.38h.1a1.5,1.5,0,0,1,1.5,1.5v30.9a0,0,0,0,1,0,0h-3.1a0,0,0,0,1,0,0V4.88a1.5,1.5,0,0,1,1.5-1.5Z"/><path class="cls-15" d="M341.77,34.59l-53.19,41.1A4,4,0,0,0,287,78.88h0a4,4,0,0,0,6.49,3.19l48.26-37.29a4,4,0,0,1,4.93,0L395,82.07a4,4,0,0,0,6.49-3.19h0a4,4,0,0,0-1.57-3.19L346.7,34.59A4,4,0,0,0,341.77,34.59Z"/><rect class="cls-15" x="312.95" y="133.04" width="62.56" height="60.09"/><polygon class="cls-10" points="367.89 20.32 342.68 20.32 342.68 7.26 367.89 7.26 362.85 13.79 367.89 20.32"/><circle class="cls-10" cx="344.23" cy="95.85" r="18.28"/><circle class="cls-16" cx="344.23" cy="95.85" r="14.92"/><rect class="cls-17" x="316.31" y="136.77" width="27.92" height="56.36"/><rect class="cls-8" x="318.9" y="139.49" width="22.36" height="30.25"/><polygon class="cls-3" points="318.9 139.49 341.26 169.74 341.26 139.49 318.9 139.49"/><rect class="cls-18" x="344.23" y="136.77" width="27.92" height="56.36"/><rect class="cls-8" x="346.82" y="139.49" width="22.36" height="30.25"/><polygon class="cls-3" points="346.82 139.49 369.18 169.74 369.18 139.49 346.82 139.49"/><g class="cls-19"><rect class="cls-6" x="297.31" y="123.65" width="9" height="3.75" rx="1.16" ry="1.16"/><rect class="cls-6" x="307.31" y="123.65" width="9" height="3.75" rx="1.16" ry="1.16"/><rect class="cls-6" x="302.31" y="119.1" width="9" height="3.75" rx="1.16" ry="1.16"/></g><g class="cls-19"><rect class="cls-6" x="372.15" y="90.83" width="9" height="3.75" rx="1.16" ry="1.16"/><rect class="cls-6" x="382.15" y="90.83" width="9" height="3.75" rx="1.16" ry="1.16"/><rect class="cls-6" x="377.15" y="86.27" width="9" height="3.75" rx="1.16" ry="1.16"/></g><g class="cls-19"><rect class="cls-6" x="484.48" y="187.1" width="9" height="3.75" rx="1.16" ry="1.16"/><rect class="cls-6" x="494.48" y="187.1" width="9" height="3.75" rx="1.16" ry="1.16"/><rect class="cls-6" x="489.48" y="182.55" width="9" height="3.75" rx="1.16" ry="1.16"/></g><g class="cls-19"><rect class="cls-6" x="235.48" y="144.25" width="9" height="3.75" rx="1.16" ry="1.16"/><rect class="cls-6" x="245.48" y="144.25" width="9" height="3.75" rx="1.16" ry="1.16"/><rect class="cls-6" x="240.48" y="139.7" width="9" height="3.75" rx="1.16" ry="1.16"/></g><g class="cls-19"><rect class="cls-6" x="186.46" y="121.38" width="9" height="3.75" rx="1.16" ry="1.16"/><rect class="cls-6" x="196.46" y="121.38" width="9" height="3.75" rx="1.16" ry="1.16"/><rect class="cls-6" x="191.46" y="116.82" width="9" height="3.75" rx="1.16" ry="1.16"/></g><path class="cls-13" d="M348.6,94.27h0A1.37,1.37,0,0,1,350,95.65v11.56a0,0,0,0,1,0,0h-2.75a0,0,0,0,1,0,0V95.65A1.37,1.37,0,0,1,348.6,94.27Z" transform="translate(674.94 -57.91) rotate(137.95)"/><path class="cls-13" d="M344.23,85.63h0A1.37,1.37,0,0,1,345.61,87v8.85a0,0,0,0,1,0,0h-2.75a0,0,0,0,1,0,0V87A1.37,1.37,0,0,1,344.23,85.63Z"/><circle class="cls-2" cx="344.23" cy="95.85" r="2.59"/><rect class="cls-17" x="85.57" y="151.17" width="5.67" height="52.98"/><path class="cls-5" d="M118.23,149.55c0,23.39-13.36,38.94-29.83,38.94s-29.83-15.54-29.83-38.94,13.36-45.78,29.83-45.78S118.23,126.16,118.23,149.55Z"/><rect class="cls-17" x="37.01" y="159.45" width="4.78" height="44.7"/><path class="cls-4" d="M64.57,158.09c0,19.73-11.27,32.85-25.17,32.85s-25.17-13.11-25.17-32.85S25.5,119.47,39.4,119.47,64.57,138.36,64.57,158.09Z"/><rect class="cls-17" x="597.23" y="151.17" width="5.67" height="52.98" transform="translate(1200.13 355.32) rotate(-180)"/><path class="cls-5" d="M570.23,149.55c0,23.39,13.36,38.94,29.83,38.94s29.83-15.54,29.83-38.94-13.36-45.78-29.83-45.78S570.23,126.16,570.23,149.55Z"/><rect class="cls-17" x="646.68" y="159.45" width="4.78" height="44.7" transform="translate(1298.13 363.6) rotate(-180)"/><path class="cls-4" d="M623.9,158.09c0,19.73,11.27,32.85,25.17,32.85s25.17-13.11,25.17-32.85S663,119.47,649.07,119.47,623.9,138.36,623.9,158.09Z"/></g></g></g></svg>