<svg xmlns="http://www.w3.org/2000/svg" viewBox="0 0 48 48"><defs><style>.cls-1{fill:#00a4d3;}</style></defs><title>Ресурс 1</title><g id="Слой_2" data-name="Слой 2"><g id="Слой_1-2" data-name="Слой 1"><path id="Forma_1" data-name="Forma 1" class="cls-1" d="M19.13,22.58a.9.9,0,0,0,.9,0l9.78-6.11a.86.86,0,0,0,0-1.47L20,8.86a.91.91,0,0,0-.91,0,.87.87,0,0,0-.46.77V21.82A.87.87,0,0,0,19.13,22.58Zm1.32-11.39,7.23,4.52-7.23,4.52v-9ZM0,0V48H48V0ZM46.22,1.75v28.8H1.78V1.75ZM1.78,46.25v-14H46.22v14Zm40-7.85H20.44V36.65a.89.89,0,0,0-1.78,0V38.4H15.11a.87.87,0,0,0-.06,1.74h3.62v1.74a.89.89,0,0,0,1.78,0V40.15H41.78a.87.87,0,0,0,.06-1.74h-.06ZM6.22,35.78a.88.88,0,0,0-.89.87h0v5.24a.89.89,0,0,0,1.78,0V36.65a.88.88,0,0,0-.89-.87Zm3.56,0a.88.88,0,0,0-.89.87h0v5.24a.89.89,0,0,0,1.78,0V36.65a.88.88,0,0,0-.89-.87Z"/></g></g></svg>