<svg xmlns="http://www.w3.org/2000/svg" viewBox="0 0 45.98 48.01"><defs><style>.cls-1{fill:#00a4d3;}</style></defs><title>Ресурс 1</title><g id="Слой_2" data-name="Слой 2"><g id="Слой_1-2" data-name="Слой 1"><path id="Forma_1" data-name="Forma 1" class="cls-1" d="M23,7.32c1.84,0,3.34-2.14,3.34-4a3.34,3.34,0,1,0-6.68,0C19.65,5.18,21.14,7.32,23,7.32ZM7.66,15.82c1.85,0,3.35-2.14,3.35-4a3.34,3.34,0,0,0-6.69,0C4.33,13.68,5.82,15.82,7.66,15.82Zm3.7,12.52v-9l.37.11,1,8.64A1.32,1.32,0,0,0,14,29.26h.14a1.33,1.33,0,0,0,1.17-1.46l-1.06-9.49a1,1,0,0,0-.06-.18,1.07,1.07,0,0,0-.08-.27,1.61,1.61,0,0,0-.15-.21c-.06-.06-.1-.13-.16-.18a1.41,1.41,0,0,0-.26-.16l-.15-.09a19.86,19.86,0,0,0-5.74-1.14A19.6,19.6,0,0,0,2,17.18l-.08,0h0l-.05,0a1.51,1.51,0,0,0-.37.22l-.11.13a1.24,1.24,0,0,0-.19.26,1.12,1.12,0,0,0-.08.26,1.05,1.05,0,0,0-.06.19L0,27.8a1.33,1.33,0,0,0,1.17,1.46h.15a1.32,1.32,0,0,0,1.31-1.17l1-8.64L4,19.34v9L3.08,39.41H0v5.12H1.28V48H14.05V44.53h1.28V39.41H12.26ZM7.66,30a1.58,1.58,0,0,0,.65-.14l.77,9.57H6.25L7,29.84A1.49,1.49,0,0,0,7.66,30ZM38.31,13.69c1.85,0,3.34-2.14,3.34-4a3.34,3.34,0,1,0-6.68,0c0,1.84,1.5,4,3.34,4ZM30.65,30.92H27.58l-.89-11.08V12.2a1.25,1.25,0,0,0,.53.13,1.34,1.34,0,0,0,1.1-.59l6.34-9.49A1.32,1.32,0,1,0,32.46.79h0L27.39,8.37A15.11,15.11,0,0,0,23,7.59a15.38,15.38,0,0,0-4.4.78L13.52.79A1.33,1.33,0,0,0,11.69.43a1.31,1.31,0,0,0-.37,1.81h0l6.34,9.49a1.34,1.34,0,0,0,1.1.59,1.25,1.25,0,0,0,.53-.13v7.64L18.4,30.92H15.33V36H16.6V48H29.38V36h1.27V30.92ZM23,21.48a1.53,1.53,0,0,0,.64-.14l.77,9.58H21.58l.77-9.58A1.54,1.54,0,0,0,23,21.48ZM42.91,37.29,42,26.21v-9l.37.1,1,8.65a1.33,1.33,0,0,0,1.31,1.17h.15A1.32,1.32,0,0,0,46,25.68l-1.06-9.5a1.26,1.26,0,0,0-.06-.18,1.38,1.38,0,0,0-.08-.27c0-.07-.1-.13-.15-.2a1.46,1.46,0,0,0-.16-.19,1.34,1.34,0,0,0-.26-.15c-.06,0-.1-.07-.15-.1A20.37,20.37,0,0,0,38.31,14a19.6,19.6,0,0,0-5.63,1.1l-.08,0h0l-.05,0a1.16,1.16,0,0,0-.37.23l-.11.12a1.65,1.65,0,0,0-.19.27,1,1,0,0,0-.08.25,1.05,1.05,0,0,0-.06.19l-1.06,9.5a1.31,1.31,0,0,0,1.16,1.45H32A1.33,1.33,0,0,0,33.29,26l1-8.64.37-.1v9l-.9,11.08H30.65v5.12h1.28V48H44.7v-5.6H46V37.29H42.91Zm-4.6-9.43a1.58,1.58,0,0,0,.65-.14l.77,9.57H36.9l.77-9.57a1.57,1.57,0,0,0,.64.14Z"/></g></g></svg>