<svg xmlns="http://www.w3.org/2000/svg" viewBox="0 0 49 46"><defs><style>.cls-1{fill:#00a4d3;}</style></defs><title>Ресурс 1</title><g id="Слой_2" data-name="Слой 2"><g id="Слой_1-2" data-name="Слой 1"><path id="Forma_1" data-name="Forma 1" class="cls-1" d="M41.34,3.07H35.22V1.53a1.53,1.53,0,1,0-3.06,0V3.07H16.84V1.53a1.53,1.53,0,1,0-3.06,0V3.07H7.66A7.58,7.58,0,0,0,0,10.58q0,.08,0,.15v27.6A7.59,7.59,0,0,0,7.5,46H41.34A7.59,7.59,0,0,0,49,38.49q0-.08,0-.16V10.73a7.58,7.58,0,0,0-7.51-7.66ZM3.06,10.73a4.72,4.72,0,0,1,4.6-4.6h6.12V7.67a1.53,1.53,0,1,0,3.06,0h0V6.13H32.16V7.67a1.53,1.53,0,1,0,3.06,0h0V6.13h6.12a4.72,4.72,0,0,1,4.6,4.6v4.6H3.06Zm42.88,27.6a4.71,4.71,0,0,1-4.6,4.6H7.66a4.71,4.71,0,0,1-4.6-4.6V18.4H45.94V38.33Zm-35.22,0a2.74,2.74,0,0,0,2.14-.92,3,3,0,0,0,.1-4.19l-.1-.1A3,3,0,0,0,8.68,33l-.11.11a2.79,2.79,0,0,0-.91,2.15,3.3,3.3,0,0,0,.91,2.14A2.78,2.78,0,0,0,10.72,38.33Zm0-9.2a2.74,2.74,0,0,0,2.14-.92A3,3,0,0,0,13,24l-.1-.1a3,3,0,0,0-4.18-.11l-.11.11a3.07,3.07,0,0,0,2.15,5.21Zm9.19,9.2a2.76,2.76,0,0,0,2.14-.92,3,3,0,0,0,.1-4.19l-.1-.1A3,3,0,0,0,17.87,33l-.11.11a3,3,0,0,0-.1,4.19l.1.1a2.76,2.76,0,0,0,2.15.92Zm0-9.2a2.76,2.76,0,0,0,2.14-.92,3,3,0,0,0,.1-4.19l-.1-.1a3,3,0,0,0-4.18-.11l-.11.11a3,3,0,0,0-.1,4.19l.1.1a2.76,2.76,0,0,0,2.15.92Zm9.18,9.2a3.14,3.14,0,0,0,3.07-3.06,2.8,2.8,0,0,0-.92-2.15A3,3,0,0,0,27.06,33l-.11.11a3,3,0,0,0-.1,4.19l.1.1A2.74,2.74,0,0,0,29.09,38.33Zm0-9.2a3.14,3.14,0,0,0,3.07-3.06,3.32,3.32,0,0,0-.92-2.15,3,3,0,0,0-4.18-.11l-.11.11a3,3,0,0,0-.1,4.19l.1.1a2.74,2.74,0,0,0,2.14.92Zm9.19,9.2a2.78,2.78,0,0,0,2.15-.92,3,3,0,0,0,.07-4.22l-.07-.07A3,3,0,0,0,36.25,33l-.11.11a2.8,2.8,0,0,0-.92,2.15,3.31,3.31,0,0,0,.92,2.14,2.74,2.74,0,0,0,2.14.92Zm0-9.2a3.13,3.13,0,0,0,3.06-3.06,3.3,3.3,0,0,0-.91-2.15,3,3,0,0,0-4.18-.11l-.11.11a3,3,0,0,0-.1,4.19l.1.1a2.74,2.74,0,0,0,2.14.92Z"/></g></g></svg>