<svg xmlns="http://www.w3.org/2000/svg" viewBox="0 0 47 48"><defs><style>.cls-1{fill:#00a4d3;}</style></defs><title>Ресурс 1</title><g id="Слой_2" data-name="Слой 2"><g id="Слой_1-2" data-name="Слой 1"><path id="Forma_1" data-name="Forma 1" class="cls-1" d="M.73,14.09a6.33,6.33,0,1,1,6.33,6.32A6.32,6.32,0,0,1,.73,14.09Zm28,5.92a2.13,2.13,0,0,0-2.93.69v0l-4.23,6.92-5.95-3.32c-2.67-1.65-4-2.43-7.95-2.43H6.46C-1.25,22.79.09,29,.09,29L1,48l13.56-.15L14,29l7.23,3.43a2.08,2.08,0,0,0,1,.28,2.16,2.16,0,0,0,1.84-1L29.45,23A2.13,2.13,0,0,0,28.74,20ZM11.6,19.35a7.22,7.22,0,0,1-1.54,1v1a9.61,9.61,0,0,1,1.54.28ZM47,0H10.06V7.81a6.87,6.87,0,0,1,1.54,1V1.54H45.46V24.7H29.16l-.94,1.54H47ZM21.65,26.24l.94-1.54H17.66l2.75,1.54h1.24ZM34.7,10.63,34,10.2l-5.18,9,.75.43Z"/></g></g></svg>