<svg xmlns="http://www.w3.org/2000/svg" viewBox="0 0 69.01 72.02"><defs><style>.cls-1{fill:#2cc990;}</style></defs><title>Ресурс 1</title><g id="Слой_2" data-name="Слой 2"><g id="Слой_1-2" data-name="Слой 1"><path id="house" class="cls-1" d="M66.76,64.81V32.28a3.09,3.09,0,0,0-3.11-3.07H48.85V20.35a2.3,2.3,0,0,0-1.2-2l-12-6.61-.2-.1V7.86h6.46a.93.93,0,0,0,.93-.92V2.27a.93.93,0,0,0-.93-.92H35.44V.93a.93.93,0,1,0-1.87,0V11.63l-.2.1-12,6.61a2.3,2.3,0,0,0-1.2,2v8.85H5.37a3.09,3.09,0,0,0-3.11,3.07h0V64.81A3.76,3.76,0,0,0,3.82,72H65.19a3.76,3.76,0,0,0,1.57-7.2Zm-12-24.89a1.8,1.8,0,0,1,1.81-1.79h3.4a1.8,1.8,0,0,1,1.81,1.78h0v3.35a1.8,1.8,0,0,1-1.81,1.79h-3.4a1.8,1.8,0,0,1-1.81-1.78h0V39.92Zm0,10.76a1.8,1.8,0,0,1,1.81-1.79h3.4a1.8,1.8,0,0,1,1.81,1.78h0V54a1.8,1.8,0,0,1-1.81,1.79h-3.4A1.8,1.8,0,0,1,54.72,54h0V50.68ZM43.82,39.92a1.8,1.8,0,0,1,1.81-1.79H49a1.8,1.8,0,0,1,1.81,1.79h0v3.35A1.8,1.8,0,0,1,49,45.06h-3.4a1.8,1.8,0,0,1-1.81-1.79h0V39.92Zm0,10.76a1.8,1.8,0,0,1,1.81-1.79H49a1.8,1.8,0,0,1,1.81,1.79h0V54A1.8,1.8,0,0,1,49,55.82h-3.4A1.8,1.8,0,0,1,43.82,54h0V50.68ZM34.51,20.36a5.07,5.07,0,1,1-5.14,5.07,5.07,5.07,0,0,1,5.14-5.07ZM29.36,49.48a1.8,1.8,0,0,1,1.81-1.79h6.67a1.8,1.8,0,0,1,1.81,1.78h0V63.59a1.76,1.76,0,0,1-.24.89H29.6a1.76,1.76,0,0,1-.24-.89V49.48ZM18.17,39.92A1.8,1.8,0,0,1,20,38.13h3.4a1.8,1.8,0,0,1,1.81,1.79h0v3.35a1.8,1.8,0,0,1-1.81,1.79H20a1.8,1.8,0,0,1-1.81-1.79h0Zm0,10.76A1.8,1.8,0,0,1,20,48.89h3.4a1.8,1.8,0,0,1,1.81,1.79h0V54a1.8,1.8,0,0,1-1.81,1.79H20A1.8,1.8,0,0,1,18.17,54h0ZM7.27,39.92a1.8,1.8,0,0,1,1.81-1.79h3.4a1.8,1.8,0,0,1,1.81,1.78h0v3.35a1.8,1.8,0,0,1-1.81,1.79H9.08a1.8,1.8,0,0,1-1.81-1.78h0V39.92Zm0,10.76a1.8,1.8,0,0,1,1.81-1.79h3.4a1.8,1.8,0,0,1,1.81,1.78h0V54a1.8,1.8,0,0,1-1.81,1.79H9.08A1.8,1.8,0,0,1,7.27,54h0V50.68Z"/></g></g></svg>