<svg xmlns="http://www.w3.org/2000/svg" viewBox="0 0 748 644.24"><defs><style>.cls-1{fill:#00a4d3;}.cls-2,.cls-4{fill:none;stroke-miterlimit:10;stroke-width:4px;}.cls-2{stroke:#00a4d3;stroke-dasharray:11.99 11.99;}.cls-3{fill:#ffdcc5;}.cls-4{stroke:#b27e5a;}</style></defs><title>Ресурс 1</title><g id="Слой_2" data-name="Слой 2"><g id="Objects"><path class="cls-1" d="M700.17,536.84a57,57,0,0,1-57,57L95.63,620.62a57,57,0,0,1-57-57L30,83.92a57,57,0,0,1,57-57L661,77.6a57,57,0,0,1,57,57Z"/><path class="cls-2" d="M739.51,580.6a61.64,61.64,0,0,1-61.64,61.64L74.81,639.79C40,641.07,13.14,612.25,13.17,578.15L2,63.64A61.64,61.64,0,0,1,63.64,2L684.36,56.8A61.64,61.64,0,0,1,746,118.44Z"/><path class="cls-3" d="M426.4,168c-.48.69-.75,1.11-.75,1.11C425.91,168.74,426.16,168.36,426.4,168Z"/><path class="cls-4" d="M262.19,199.27"/><path class="cls-4" d="M242.73,208.41"/></g></g></svg>