<svg xmlns="http://www.w3.org/2000/svg" viewBox="0 0 807.3 112.1"><defs><style>.cls-1{fill:#fff}</style></defs><title>Ресурс 1</title><g id="Слой_2" data-name="Слой 2"><g id="OBJECTS"><path class="cls-1" d="M519.2 41.3h-.5a17.52 17.52 0 0 0 .5-4 16.94 16.94 0 0 0-16.9-16.9 18.58 18.58 0 0 0-5.8 1 12.83 12.83 0 0 0-22.2 0 15.72 15.72 0 0 0-5.8-1 16.87 16.87 0 0 0-16.6 13.8 20.56 20.56 0 0 0 3.7 40.8h63.6a16.85 16.85 0 1 0 0-33.7z"/><path class="cls-1" d="M583.7 52.9h-.5a17.52 17.52 0 0 0 .5-4A16.94 16.94 0 0 0 566.8 32a18.58 18.58 0 0 0-5.8 1 12.83 12.83 0 0 0-22.2 0 15.72 15.72 0 0 0-5.8-1 16.87 16.87 0 0 0-16.6 13.8 20.56 20.56 0 0 0 3.7 40.8h63.6a16.85 16.85 0 1 0 0-33.7z"/><path class="cls-1" d="M641.2 45.9h-.5a17.52 17.52 0 0 0 .5-4A16.94 16.94 0 0 0 624.3 25a18.58 18.58 0 0 0-5.8 1 12.83 12.83 0 0 0-22.2 0 15.72 15.72 0 0 0-5.8-1 16.87 16.87 0 0 0-16.6 13.8 20.56 20.56 0 0 0 3.7 40.8h63.6a16.85 16.85 0 1 0 0-33.7zM98.2 45.1A20.73 20.73 0 0 0 80 14.5a20.08 20.08 0 0 0-7.8 1.5 13.89 13.89 0 0 0-12.9-8.7 13.67 13.67 0 0 0-12.2 7.3 19.8 19.8 0 0 0-8.4-1.8A20.58 20.58 0 0 0 18.2 31a20.67 20.67 0 0 0 2.5 41.2H94a13.87 13.87 0 0 0 4.2-27.1zM797.6 62.7a20.73 20.73 0 0 0-18.2-30.6 20.08 20.08 0 0 0-7.8 1.5 13.89 13.89 0 0 0-12.9-8.7 13.67 13.67 0 0 0-12.2 7.3 19.8 19.8 0 0 0-8.4-1.8 20.58 20.58 0 0 0-20.5 18.2 20.67 20.67 0 0 0 2.5 41.2h73.3a13.87 13.87 0 0 0 4.2-27.1z"/><path class="cls-1" d="M191.8 61.4a25.13 25.13 0 0 0 3.1-12.2 25.37 25.37 0 0 0-35-23.5 17.08 17.08 0 0 0-30.8-1.7 25.84 25.84 0 0 0-10.4-2.2 25.41 25.41 0 0 0-25.2 22.4 25.39 25.39 0 0 0 3 50.6h90a17.12 17.12 0 0 0 5.3-33.4z"/><path class="cls-1" d="M297.8 46.3a25.13 25.13 0 0 0 3.1-12.2 25.37 25.37 0 0 0-35-23.5 17.08 17.08 0 0 0-30.8-1.7 25.84 25.84 0 0 0-10.4-2.2 25.41 25.41 0 0 0-25.2 22.4 25.39 25.39 0 0 0 3 50.6h90a17.12 17.12 0 0 0 5.3-33.4z"/><path class="cls-1" d="M368.8 78.7a25.13 25.13 0 0 0 3.1-12.2 25.37 25.37 0 0 0-35-23.5 17.08 17.08 0 0 0-30.8-1.7 25.84 25.84 0 0 0-10.4-2.2 25.41 25.41 0 0 0-25.2 22.4 25.39 25.39 0 0 0 3 50.6h90a17.12 17.12 0 0 0 5.3-33.4z"/><path class="cls-1" d="M456.7 46.3a25.13 25.13 0 0 0 3.1-12.2 25.37 25.37 0 0 0-35-23.5A17.08 17.08 0 0 0 394 8.9a25.84 25.84 0 0 0-10.4-2.2 25.41 25.41 0 0 0-25.2 22.4 25.39 25.39 0 0 0 3 50.6h90a17.12 17.12 0 0 0 5.3-33.4zM741.5 46.3a25.13 25.13 0 0 0 3.1-12.2 25.37 25.37 0 0 0-35-23.5 17.08 17.08 0 0 0-30.8-1.7 25.84 25.84 0 0 0-10.4-2.2 25.41 25.41 0 0 0-25.2 22.4 25.39 25.39 0 0 0 3 50.6h90a17.12 17.12 0 0 0 5.3-33.4z"/></g></g></svg>