<svg xmlns="http://www.w3.org/2000/svg" viewBox="0 0 688.47 220.24"><defs><style>.cls-1{isolation:isolate}.cls-16,.cls-2,.cls-3{fill:#009ace}.cls-3{opacity:.15}.cls-14,.cls-4,.cls-5,.cls-6,.cls-7{fill:#009ace}.cls-19,.cls-7{mix-blend-mode:multiply}.cls-10,.cls-11,.cls-12,.cls-13,.cls-15,.cls-17,.cls-18,.cls-8,.cls-9{fill:#009ace}</style></defs><title>Ресурс 1</title><g class="cls-1"><g id="Слой_2" data-name="Слой 2"><g id="Objects"><path class="cls-2" d="M0 204.15h688.47v16.09H0z"/><path class="cls-3" d="M227.87 117.11a8.93 8.93 0 0 0-4 1 21.06 21.06 0 0 0-34.66-19.84 29.17 29.17 0 0 0-57.09 11.23 14.58 14.58 0 1 0-9.52 25.62h105.27a9 9 0 0 0 0-18zM39.7 28.12a6.22 6.22 0 0 1 2.79.66A14.67 14.67 0 0 1 66.63 15a20.31 20.31 0 0 1 39.76 7.82A10.15 10.15 0 1 1 113 40.63H39.7a6.26 6.26 0 1 1 0-12.51zM460.59 117.11a8.93 8.93 0 0 1 4 1 21.06 21.06 0 0 1 34.66-19.84 29.17 29.17 0 0 1 57.09 11.23 14.58 14.58 0 1 1 9.52 25.62H460.59a9 9 0 0 1 0-18zM648.76 28.12a6.22 6.22 0 0 0-2.79.66A14.67 14.67 0 0 0 621.84 15a20.31 20.31 0 0 0-39.76 7.82 10.15 10.15 0 1 0-6.63 17.84h73.31a6.26 6.26 0 0 0 0-12.51z"/><path class="cls-4" d="M125.06 180.05a24.1 24.1 0 0 0-24.1 24.1h48.19a24.1 24.1 0 0 0-24.09-24.1z"/><path class="cls-5" d="M163.13 171.32a32.83 32.83 0 0 0-32.83 32.83H196a32.83 32.83 0 0 0-32.87-32.83z"/><path class="cls-4" d="M563.4 180.05a24.1 24.1 0 0 1 24.1 24.1h-48.2a24.1 24.1 0 0 1 24.1-24.1z"/><path class="cls-5" d="M525.34 171.32a32.83 32.83 0 0 1 32.83 32.83h-65.66a32.83 32.83 0 0 1 32.83-32.83z"/><path class="cls-6" d="M182.52 94.58h323.42v98.55H182.52z"/><path class="cls-7" d="M182.52 100.71h323.42v2.77H182.52z"/><path class="cls-8" d="M207.24 110.85h22.2v22.2h-22.2z"/><path class="cls-3" d="M207.24 110.85l22.2 22.2v-22.2h-22.2z"/><rect class="cls-9" x="203.98" y="133.05" width="28.71" height="4.59" rx="2.22" ry="2.22"/><rect class="cls-9" x="203.98" y="106.26" width="28.71" height="4.59" rx="2.22" ry="2.22"/><path class="cls-8" d="M255.85 110.85h22.2v22.2h-22.2z"/><path class="cls-3" d="M255.85 110.85l22.2 22.2v-22.2h-22.2z"/><rect class="cls-9" x="252.6" y="133.05" width="28.71" height="4.59" rx="2.22" ry="2.22"/><rect class="cls-9" x="252.6" y="106.26" width="28.71" height="4.59" rx="2.22" ry="2.22"/><path class="cls-8" d="M207.24 155.76h22.2v22.2h-22.2z"/><path class="cls-3" d="M207.24 155.76l22.2 22.2v-22.2h-22.2z"/><rect class="cls-9" x="203.98" y="177.96" width="28.71" height="4.59" rx="2.22" ry="2.22"/><rect class="cls-9" x="203.98" y="151.17" width="28.71" height="4.59" rx="2.22" ry="2.22"/><path class="cls-8" d="M255.85 155.76h22.2v22.2h-22.2z"/><path class="cls-3" d="M255.85 155.76l22.2 22.2v-22.2h-22.2z"/><rect class="cls-9" x="252.6" y="177.96" width="28.71" height="4.59" rx="2.22" ry="2.22"/><rect class="cls-9" x="252.6" y="151.17" width="28.71" height="4.59" rx="2.22" ry="2.22"/><path class="cls-8" d="M410.42 110.85h22.2v22.2h-22.2z"/><path class="cls-3" d="M410.42 110.85l22.2 22.2v-22.2h-22.2z"/><rect class="cls-9" x="407.16" y="133.05" width="28.71" height="4.59" rx="2.22" ry="2.22"/><rect class="cls-9" x="407.16" y="106.26" width="28.71" height="4.59" rx="2.22" ry="2.22"/><path class="cls-8" d="M459.03 110.85h22.2v22.2h-22.2z"/><path class="cls-3" d="M459.03 110.85l22.2 22.2v-22.2h-22.2z"/><rect class="cls-9" x="455.77" y="133.05" width="28.71" height="4.59" rx="2.22" ry="2.22"/><rect class="cls-9" x="455.77" y="106.26" width="28.71" height="4.59" rx="2.22" ry="2.22"/><path class="cls-8" d="M410.42 155.76h22.2v22.2h-22.2z"/><path class="cls-3" d="M410.42 155.76l22.2 22.2v-22.2h-22.2z"/><rect class="cls-9" x="407.16" y="177.96" width="28.71" height="4.59" rx="2.22" ry="2.22"/><rect class="cls-9" x="407.16" y="151.17" width="28.71" height="4.59" rx="2.22" ry="2.22"/><path class="cls-8" d="M459.03 155.76h22.2v22.2h-22.2z"/><path class="cls-3" d="M459.03 155.76l22.2 22.2v-22.2h-22.2z"/><rect class="cls-9" x="455.77" y="177.96" width="28.71" height="4.59" rx="2.22" ry="2.22"/><rect class="cls-9" x="455.77" y="151.17" width="28.71" height="4.59" rx="2.22" ry="2.22"/><path class="cls-10" d="M512.44 94.75H176.02l21.2-43.96h294.03l21.19 43.96z"/><path class="cls-11" d="M182.25 193.13h324a10.66 10.66 0 0 1 10.66 10.66v.36H171.59v-.36a10.66 10.66 0 0 1 10.66-10.66z"/><rect class="cls-9" x="171.59" y="94.75" width="345.29" height="5.96" rx="2.88" ry="2.88"/><rect class="cls-9" x="193.2" y="44.83" width="302.07" height="5.96" rx="2.88" ry="2.88"/><path class="cls-12" d="M280.54 198.64h127.39a5.33 5.33 0 0 1 5.33 5.33v.18h-138V204a5.33 5.33 0 0 1 5.28-5.36z"/><path class="cls-13" d="M289.61 193.13h109.24a5.33 5.33 0 0 1 5.33 5.33v.18h-119.9v-.18a5.33 5.33 0 0 1 5.33-5.33z"/><path class="cls-14" d="M292.87 76.02l51.36-39.99 51.37 39.99v117.11H292.87V76.02z"/><path class="cls-11" d="M344.18 3.38h.1a1.5 1.5 0 0 1 1.5 1.5v30.9h-3.1V4.88a1.5 1.5 0 0 1 1.5-1.5z"/><path class="cls-15" d="M341.77 34.59l-53.19 41.1a4 4 0 0 0-1.58 3.19 4 4 0 0 0 6.49 3.19l48.26-37.29a4 4 0 0 1 4.93 0L395 82.07a4 4 0 0 0 6.49-3.19 4 4 0 0 0-1.57-3.19l-53.22-41.1a4 4 0 0 0-4.93 0zM312.95 133.04h62.56v60.09h-62.56z"/><path class="cls-10" d="M367.89 20.32h-25.21V7.26h25.21l-5.04 6.53 5.04 6.53z"/><circle class="cls-10" cx="344.23" cy="95.85" r="18.28"/><circle class="cls-16" cx="344.23" cy="95.85" r="14.92"/><path class="cls-17" d="M316.31 136.77h27.92v56.36h-27.92z"/><path class="cls-8" d="M318.9 139.49h22.36v30.25H318.9z"/><path class="cls-3" d="M318.9 139.49l22.36 30.25v-30.25H318.9z"/><path class="cls-18" d="M344.23 136.77h27.92v56.36h-27.92z"/><path class="cls-8" d="M346.82 139.49h22.36v30.25h-22.36z"/><path class="cls-3" d="M346.82 139.49l22.36 30.25v-30.25h-22.36z"/><g class="cls-19"><rect class="cls-6" x="297.31" y="123.65" width="9" height="3.75" rx="1.16" ry="1.16"/><rect class="cls-6" x="307.31" y="123.65" width="9" height="3.75" rx="1.16" ry="1.16"/><rect class="cls-6" x="302.31" y="119.1" width="9" height="3.75" rx="1.16" ry="1.16"/></g><g class="cls-19"><rect class="cls-6" x="372.15" y="90.83" width="9" height="3.75" rx="1.16" ry="1.16"/><rect class="cls-6" x="382.15" y="90.83" width="9" height="3.75" rx="1.16" ry="1.16"/><rect class="cls-6" x="377.15" y="86.27" width="9" height="3.75" rx="1.16" ry="1.16"/></g><g class="cls-19"><rect class="cls-6" x="484.48" y="187.1" width="9" height="3.75" rx="1.16" ry="1.16"/><rect class="cls-6" x="494.48" y="187.1" width="9" height="3.75" rx="1.16" ry="1.16"/><rect class="cls-6" x="489.48" y="182.55" width="9" height="3.75" rx="1.16" ry="1.16"/></g><g class="cls-19"><rect class="cls-6" x="235.48" y="144.25" width="9" height="3.75" rx="1.16" ry="1.16"/><rect class="cls-6" x="245.48" y="144.25" width="9" height="3.75" rx="1.16" ry="1.16"/><rect class="cls-6" x="240.48" y="139.7" width="9" height="3.75" rx="1.16" ry="1.16"/></g><g class="cls-19"><rect class="cls-6" x="186.46" y="121.38" width="9" height="3.75" rx="1.16" ry="1.16"/><rect class="cls-6" x="196.46" y="121.38" width="9" height="3.75" rx="1.16" ry="1.16"/><rect class="cls-6" x="191.46" y="116.82" width="9" height="3.75" rx="1.16" ry="1.16"/></g><path class="cls-13" d="M348.6 94.27a1.37 1.37 0 0 1 1.4 1.38v11.56h-2.75V95.65a1.37 1.37 0 0 1 1.35-1.38z" transform="rotate(137.95 348.6 100.757)"/><path class="cls-13" d="M344.23 85.63a1.37 1.37 0 0 1 1.38 1.37v8.85h-2.75V87a1.37 1.37 0 0 1 1.37-1.37z"/><circle class="cls-2" cx="344.23" cy="95.85" r="2.59"/><path class="cls-17" d="M85.57 151.17h5.67v52.98h-5.67z"/><path class="cls-5" d="M118.23 149.55c0 23.39-13.36 38.94-29.83 38.94s-29.83-15.54-29.83-38.94 13.36-45.78 29.83-45.78 29.83 22.39 29.83 45.78z"/><path class="cls-17" d="M37.01 159.45h4.78v44.7h-4.78z"/><path class="cls-4" d="M64.57 158.09c0 19.73-11.27 32.85-25.17 32.85s-25.17-13.11-25.17-32.85 11.27-38.62 25.17-38.62 25.17 18.89 25.17 38.62z"/><path class="cls-17" transform="rotate(-180 600.065 177.66)" d="M597.23 151.17h5.67v52.98h-5.67z"/><path class="cls-5" d="M570.23 149.55c0 23.39 13.36 38.94 29.83 38.94s29.83-15.54 29.83-38.94-13.36-45.78-29.83-45.78-29.83 22.39-29.83 45.78z"/><path class="cls-17" transform="rotate(-180 649.065 181.8)" d="M646.68 159.45h4.78v44.7h-4.78z"/><path class="cls-4" d="M623.9 158.09c0 19.73 11.27 32.85 25.17 32.85s25.17-13.11 25.17-32.85-11.24-38.62-25.17-38.62-25.17 18.89-25.17 38.62z"/></g></g></g></svg>