<svg xmlns="http://www.w3.org/2000/svg" viewBox="0 0 48 48"><defs><style>.cls-1{fill:#00a4d3}</style></defs><title>Ресурс 1</title><g id="Слой_2" data-name="Слой 2"><g id="Слой_1-2" data-name="Слой 1"><path id="Forma_1" data-name="Forma 1" class="cls-1" d="M19.13 22.58a.9.9 0 0 0 .9 0l9.78-6.11a.86.86 0 0 0 0-1.47L20 8.86a.91.91 0 0 0-.91 0 .87.87 0 0 0-.46.77v12.19a.87.87 0 0 0 .5.76zm1.32-11.39l7.23 4.52-7.23 4.52v-9zM0 0v48h48V0zm46.22 1.75v28.8H1.78V1.75zM1.78 46.25v-14h44.44v14zm40-7.85H20.44v-1.75a.89.89 0 0 0-1.78 0v1.75h-3.55a.87.87 0 0 0-.06 1.74h3.62v1.74a.89.89 0 0 0 1.78 0v-1.73h21.33a.87.87 0 0 0 .06-1.74h-.06zM6.22 35.78a.88.88 0 0 0-.89.87v5.24a.89.89 0 0 0 1.78 0v-5.24a.88.88 0 0 0-.89-.87zm3.56 0a.88.88 0 0 0-.89.87v5.24a.89.89 0 0 0 1.78 0v-5.24a.88.88 0 0 0-.89-.87z"/></g></g></svg>