<svg xmlns="http://www.w3.org/2000/svg" viewBox="0 0 75.98 75.98"><defs><style>.cls-1{fill:#2c82c9}</style></defs><title>Ресурс 1</title><g id="Слой_2" data-name="Слой 2"><g id="Слой_1-2" data-name="Слой 1"><path id="clock" class="cls-1" d="M38 76a38 38 0 1 1 38-38 38 38 0 0 1-38 38zm0-73.69A35.68 35.68 0 1 0 73.67 38 35.68 35.68 0 0 0 38 2.31zm11 50.18a1.15 1.15 0 0 1-.89-.42l-11-13.34a1.15 1.15 0 0 1-.27-.74V15.83a1.16 1.16 0 1 1 2.31 0v21.75l10.78 13a1.15 1.15 0 0 1-.93 1.91z"/></g></g></svg>