<svg xmlns="http://www.w3.org/2000/svg" viewBox="0 0 94 71"><defs><style>.cls-1{fill:#9f0088}</style></defs><title>Ресурс 1</title><g id="Слой_2" data-name="Слой 2"><g id="Слой_1-2" data-name="Слой 1"><path id="book" class="cls-1" d="M14.38 0A3.33 3.33 0 0 0 12 1a3.29 3.29 0 0 0-1 2.36v49.83a3.36 3.36 0 0 0 3.37 3.33c7.83 0 20.95 1.63 30 11v-52.2a3.16 3.16 0 0 0-.46-1.68C36.5 1.81 22.23 0 14.38 0zM83 53.19V3.32A3.29 3.29 0 0 0 82 1a3.34 3.34 0 0 0-2.36-1C71.77 0 57.5 1.82 50.07 13.64a3.16 3.16 0 0 0-.46 1.68V67.5c9-9.36 22.17-11 30-11A3.36 3.36 0 0 0 83 53.19zm7.64-41.69H88.2v41.69a8.56 8.56 0 0 1-8.58 8.49C73 61.69 62 63 54.28 70.23c13.41-3.25 27.55-1.14 35.61.68a3.39 3.39 0 0 0 2.85-.64 3.29 3.29 0 0 0 1.26-2.6V14.82a3.35 3.35 0 0 0-3.36-3.32zM5.8 53.19V11.5H3.36A3.35 3.35 0 0 0 0 14.82v52.85a3.29 3.29 0 0 0 1.26 2.6 3.38 3.38 0 0 0 2.85.64c8.06-1.82 22.2-3.93 35.61-.68C32 63 21 61.69 14.38 61.68a8.56 8.56 0 0 1-8.58-8.49z"/></g></g></svg>