<svg xmlns="http://www.w3.org/2000/svg" viewBox="0 0 49 46"><defs><style>.cls-1{fill:#00a4d3}</style></defs><title>Ресурс 1</title><g id="Слой_2" data-name="Слой 2"><g id="Слой_1-2" data-name="Слой 1"><path id="Forma_1" data-name="Forma 1" class="cls-1" d="M41.34 3.07h-6.12V1.53a1.53 1.53 0 1 0-3.06 0v1.54H16.84V1.53a1.53 1.53 0 1 0-3.06 0v1.54H7.66A7.58 7.58 0 0 0 0 10.58v27.75A7.59 7.59 0 0 0 7.5 46h33.84A7.59 7.59 0 0 0 49 38.49V10.73a7.58 7.58 0 0 0-7.51-7.66zM3.06 10.73a4.72 4.72 0 0 1 4.6-4.6h6.12v1.54a1.53 1.53 0 1 0 3.06 0V6.13h15.32v1.54a1.53 1.53 0 1 0 3.06 0V6.13h6.12a4.72 4.72 0 0 1 4.6 4.6v4.6H3.06zm42.88 27.6a4.71 4.71 0 0 1-4.6 4.6H7.66a4.71 4.71 0 0 1-4.6-4.6V18.4h42.88v19.93zm-35.22 0a2.74 2.74 0 0 0 2.14-.92 3 3 0 0 0 .1-4.19l-.1-.1A3 3 0 0 0 8.68 33l-.11.11a2.79 2.79 0 0 0-.91 2.15 3.3 3.3 0 0 0 .91 2.14 2.78 2.78 0 0 0 2.15.93zm0-9.2a2.74 2.74 0 0 0 2.14-.92A3 3 0 0 0 13 24l-.1-.1a3 3 0 0 0-4.18-.11l-.11.11a3.07 3.07 0 0 0 2.15 5.21zm9.19 9.2a2.76 2.76 0 0 0 2.14-.92 3 3 0 0 0 .1-4.19l-.1-.1a3 3 0 0 0-4.18-.12l-.11.11a3 3 0 0 0-.1 4.19l.1.1a2.76 2.76 0 0 0 2.15.92zm0-9.2a2.76 2.76 0 0 0 2.14-.92 3 3 0 0 0 .1-4.19l-.1-.1a3 3 0 0 0-4.18-.11l-.11.11a3 3 0 0 0-.1 4.19l.1.1a2.76 2.76 0 0 0 2.15.92zm9.18 9.2a3.14 3.14 0 0 0 3.07-3.06 2.8 2.8 0 0 0-.92-2.15 3 3 0 0 0-4.18-.12l-.11.11a3 3 0 0 0-.1 4.19l.1.1a2.74 2.74 0 0 0 2.14.93zm0-9.2a3.14 3.14 0 0 0 3.07-3.06 3.32 3.32 0 0 0-.92-2.15 3 3 0 0 0-4.18-.11l-.11.11a3 3 0 0 0-.1 4.19l.1.1a2.74 2.74 0 0 0 2.14.92zm9.19 9.2a2.78 2.78 0 0 0 2.15-.92 3 3 0 0 0 .07-4.22l-.07-.07a3 3 0 0 0-4.18-.12l-.11.11a2.8 2.8 0 0 0-.92 2.15 3.31 3.31 0 0 0 .92 2.14 2.74 2.74 0 0 0 2.14.92zm0-9.2a3.13 3.13 0 0 0 3.06-3.06 3.3 3.3 0 0 0-.91-2.15 3 3 0 0 0-4.18-.11l-.11.11a3 3 0 0 0-.1 4.19l.1.1a2.74 2.74 0 0 0 2.14.92z"/></g></g></svg>