<svg xmlns="http://www.w3.org/2000/svg" viewBox="0 0 53 48"><defs><style>.cls-1{fill:#00a4d3}</style></defs><title>Ресурс 1</title><g id="Слой_2" data-name="Слой 2"><g id="Слой_1-2" data-name="Слой 1"><path id="Forma_1" data-name="Forma 1" class="cls-1" d="M13.83 32a4.3 4.3 0 1 0-2.67 7.66 4.28 4.28 0 0 0 4.26-4.77A4.24 4.24 0 0 0 13.83 32zM13 36.77a2.33 2.33 0 1 1-.37-3.26 2.34 2.34 0 0 1 .37 3.26zm18-14.91a4.31 4.31 0 1 0-1.4-.24 4.3 4.3 0 0 0 1.4.24zm-2.21-5.07A2.32 2.32 0 0 1 30 15.46a2.37 2.37 0 0 1 1-.23 2.34 2.34 0 0 1 2.11 1.32 2.31 2.31 0 0 1-1.05 3.09 2.24 2.24 0 0 1-1 .23 2.37 2.37 0 0 1-2.11-1.32 2.31 2.31 0 0 1-.1-1.77zm-8.43-1.9A4.3 4.3 0 0 0 22.3 6.5a4.5 4.5 0 0 0-1-.11 4.3 4.3 0 0 0-.94 8.5zm-1.33-4.71a2.33 2.33 0 0 1 2.8-1.75 2.37 2.37 0 0 1 1.47 1 2.31 2.31 0 0 1 .29 1.74A2.35 2.35 0 0 1 21.34 13a2.3 2.3 0 0 1-.52-.06 2.37 2.37 0 0 1-1.47-1 2.31 2.31 0 0 1-.29-1.74zm-6.45 7.17a4.29 4.29 0 0 0 .7-6 4.29 4.29 0 1 0-.68 6.05zm-4.5-1.92a2.32 2.32 0 0 1 1.83-3.77 2.36 2.36 0 0 1 1.83.87 2.33 2.33 0 0 1-3.66 2.9zM52.63 7.7a1.26 1.26 0 0 0-.95-.38c-.56 0-2 0-11.05 7.72l-.54.47A24.3 24.3 0 0 0 32 4.78 23.8 23.8 0 0 0 17.63 0 23.34 23.34 0 0 0 6.42 3.25C2.28 5.7 0 9 0 12.49c0 4.23 2.37 6 4.27 7.42C5.82 21.07 7.05 22 7.05 24s-1.22 2.92-2.78 4.08C2.37 29.5 0 31.27 0 35.5c0 3.5 2.29 6.79 6.43 9.25A23.49 23.49 0 0 0 17.64 48a24 24 0 0 0 24-23.73c1.52-1.75 3-3.48 4.33-5.11 2.3-2.79 4.07-5.1 5.25-6.85C52.8 10 53.49 8.57 52.63 7.7zm-19.4 31.88A21.88 21.88 0 0 1 17.65 46C11.33 46 2 41.61 2 35.5c0-3.24 1.69-4.5 3.48-5.84S9 27 9 24s-1.9-4.42-3.57-5.67S2 15.73 2 12.49c0-3.75 3.37-6.34 5.41-7.54A21.67 21.67 0 0 1 17.62 2a21.86 21.86 0 0 1 13.21 4.4 22.22 22.22 0 0 1 7.67 10.49c-4.24 3.74-8.83 8.05-12.26 11.51-5.68.74-6.46 4.56-7 7.36-.48 2.39-.8 3.55-2.63 3.7a1 1 0 0 0-.88.82 1 1 0 0 0 .59 1.07 17.75 17.75 0 0 0 6.18 1.2 10 10 0 0 0 5.81-1.65 10.23 10.23 0 0 0 3.92-6.38c2.24-2.28 4.79-5 7.32-7.86a21.84 21.84 0 0 1-6.3 12.92zm-3-5.24c-1 4.14-3.64 6.24-7.76 6.24a14.39 14.39 0 0 1-3-.34 8 8 0 0 0 1.66-4.08c.53-2.67 1-5.19 5.2-5.79zm13.52-15.58c-3.87 4.66-8.57 9.89-12.43 13.87l-.6-.61-2.64-2.68c3.5-3.52 8-7.71 12.19-11.38l1.45-1.26a74.71 74.71 0 0 1 8.72-6.8 74.07 74.07 0 0 1-6.69 8.86z"/></g></g></svg>