<svg xmlns="http://www.w3.org/2000/svg" viewBox="0 0 47.01 47.04"><defs><style>.cls-1{fill:#00a4d3}</style></defs><title>Ресурс 1</title><g id="Слой_2" data-name="Слой 2"><path class="cls-1" d="M5.34 22.38a1.07 1.07 0 1 1-1.07 1.07 1.07 1.07 0 0 1 1.07-1.07zm40.59 6.4a1 1 0 0 0-1.07 1.07A15 15 0 0 1 15 30.91h26.7a1.09 1.09 0 0 0 1.07-1.07v-4.26c-.32-8.85-4.49-16.2-10.26-18.44a1.08 1.08 0 0 0-.75 2c4.91 1.92 8.65 8.74 8.87 16.52v3.2H13.89A1 1 0 0 0 12.82 30 17.09 17.09 0 0 0 47 30a1 1 0 0 0-.9-1.17h-.17zM29.8 2a1 1 0 0 0-1-1 8 8 0 0 0-6.37 2.2V1.07a1.07 1.07 0 0 0-2.14 0v7.35a3.32 3.32 0 0 1-1.39-.64 8.44 8.44 0 0 0-5-1.39C6.2 6.4 0 15.46 0 26.65S6.2 46.9 13.89 46.9a9.27 9.27 0 0 0 3.42-.64 1.11 1.11 0 0 0 .64-1.38 1.07 1.07 0 0 0-1.37-.65 7.45 7.45 0 0 1-2.67.53c-6.52 0-11.75-8.1-11.75-18.12S7.37 8.53 13.89 8.53a6.25 6.25 0 0 1 3.74 1 6.74 6.74 0 0 0 3.74 1.17h.75a7.67 7.67 0 0 0 5.55-2.24A7.63 7.63 0 0 0 29.8 2zm-3.63 4.9a5.25 5.25 0 0 1-3.74 1.6v-.29A4.92 4.92 0 0 1 24 4.8a5.25 5.25 0 0 1 3.74-1.6 5.23 5.23 0 0 1-1.6 3.73zm-12.29 3.76c-3.52 0-6.73 3.09-8.44 8.21a1.11 1.11 0 0 0 .64 1.39h.43a1 1 0 0 0 1-.75c1.39-4.16 3.85-6.71 6.41-6.71a1.07 1.07 0 0 0 .08-2.14h-.12zm21.26 22.81a1.17 1.17 0 0 0-1.6-.21 4.34 4.34 0 0 1-5 0 1.07 1.07 0 0 0-1.33 1.67 6.42 6.42 0 0 0 7.69 0 1.14 1.14 0 0 0 .24-1.46z" id="Слой_1-2" data-name="Слой 1"/></g></svg>