<svg xmlns="http://www.w3.org/2000/svg" viewBox="0 0 116.06 102.24"><defs><style>.cls-1{fill:#fff}</style></defs><title>Ресурс 1</title><g id="Слой_2" data-name="Слой 2"><g id="Layer_1" data-name="Layer 1"><path class="cls-1" d="M73.8 13.6h-32a12.33 12.33 0 0 1 .46 1.62H73.8a28.45 28.45 0 0 1 28.42 28.42v26.84a12.76 12.76 0 0 1 1.62-.56V43.65A30.08 30.08 0 0 0 73.8 13.6z"/><path class="cls-1" d="M100.87 71.16V43.65A27.1 27.1 0 0 0 73.8 16.57H42.48q0 .4.06.81H73.8a26.29 26.29 0 0 1 26.26 26.26v28c.27-.15.54-.32.81-.48zM41 89.66a28.45 28.45 0 0 1-28.37-28.42v-29a13.05 13.05 0 0 1-1.62.39v28.61a30.08 30.08 0 0 0 30 30H75.6a11.17 11.17 0 0 1-.93-1.62z"/><path class="cls-1" d="M14.79 61.24V31.29c-.27.14-.54.28-.81.4v29.55A27.1 27.1 0 0 0 41 88.31h33.13c-.09-.26-.17-.53-.24-.81H41a26.29 26.29 0 0 1-26.21-26.26zM35.29 12.45q-2.41-2-4.07-2A9.58 9.58 0 0 1 32.85 7a15.55 15.55 0 0 1 3.63-4 3.7 3.7 0 0 0-2.05-3 17.64 17.64 0 0 0-7.21 4.49 26.27 26.27 0 0 0-5.35 7.46 18.39 18.39 0 0 0-2 7.9 7.56 7.56 0 0 0 2.41 5.93 8.91 8.91 0 0 0 6.18 2.16 8.41 8.41 0 0 0 6.49-3 9.9 9.9 0 0 0 2.72-6.74 7 7 0 0 0-2.38-5.75zM15.44 12.45q-2.41-2-4.08-2A9.62 9.62 0 0 1 13 7a16.08 16.08 0 0 1 3.58-4 3.61 3.61 0 0 0-2.05-3Q8.81 1.78 4.41 7.93T0 18.85q0 4.77 2.44 6.93a9 9 0 0 0 6.21 2.16 8.41 8.41 0 0 0 6.49-3 9.91 9.91 0 0 0 2.72-6.74 7 7 0 0 0-2.42-5.75zM101.53 102.24q5.71-1.77 10.12-7.93t4.41-10.92q0-4.77-2.44-6.93a9 9 0 0 0-6.21-2.16 8.41 8.41 0 0 0-6.49 3 9.91 9.91 0 0 0-2.72 6.74 7 7 0 0 0 2.41 5.71q2.41 2 4.08 2a9.63 9.63 0 0 1-1.63 3.41 16.08 16.08 0 0 1-3.58 4 3.61 3.61 0 0 0 2.05 3.08zM81.63 102.24a17.64 17.64 0 0 0 7.21-4.49 26.28 26.28 0 0 0 5.35-7.46 18.38 18.38 0 0 0 2-7.9 7.56 7.56 0 0 0-2.41-5.93 8.9 8.9 0 0 0-6.18-2.16 8.41 8.41 0 0 0-6.49 3 9.9 9.9 0 0 0-2.72 6.74 7 7 0 0 0 2.41 5.71q2.41 2 4.07 2a9.57 9.57 0 0 1-1.63 3.41 15.58 15.58 0 0 1-3.63 4 3.7 3.7 0 0 0 2.02 3.08z"/></g></g></svg>