<svg xmlns="http://www.w3.org/2000/svg" viewBox="0 0 441.37 313.01"><defs><style>.cls-1{fill:#784896}.cls-2{fill:#00a5cc}.cls-3{fill:#0084b4}.cls-4{fill:#66b32e}.cls-5{fill:#ffe216}.cls-6{fill:#ed6e4e}.cls-7{fill:#e73441}</style></defs><title>Ресурс 1</title><g id="Слой_2" data-name="Слой 2"><g id="Layer_1" data-name="Layer 1"><path class="cls-1" d="M10.51 192.3A213.24 213.24 0 0 1 17 162.49C49.8 50.66 167.05-13.38 278.88 19.44s175.86 150.08 143 261.9a211.74 211.74 0 0 1-10.67 28.58l10.54 3.08a223.88 223.88 0 0 0 10.57-28.6C466.84 166.83 399.5 43.55 281.93 9S41.08 41.86 6.57 159.43A225.3 225.3 0 0 0 0 189.21z"/><path class="cls-2" d="M17.41 194.32a205.21 205.21 0 0 1 6.4-29.83c31.71-108 145-169.93 253.07-138.22s169.92 145 138.21 253.06a204.52 204.52 0 0 1-10.74 28.56l6.9 2a211.74 211.74 0 0 0 10.67-28.58c32.82-111.82-31.22-229.08-143-261.9S49.8 50.66 17 162.49a213.24 213.24 0 0 0-6.47 29.81z"/><path class="cls-3" d="M27.53 197.29a193.89 193.89 0 0 1 6.27-29.86C63.9 64.9 171.41 6.17 273.94 36.27S435.19 173.88 405.1 276.41a195.24 195.24 0 0 1-10.86 28.52l10.11 3a204.52 204.52 0 0 0 10.74-28.56C446.8 171.3 384.92 58 276.88 26.28S55.52 56.44 23.81 164.49a205.21 205.21 0 0 0-6.4 29.83z"/><path class="cls-4" d="M38.8 200.6A181.89 181.89 0 1 1 394 273.15a183.28 183.28 0 0 1-11 28.47l11.28 3.31a195.24 195.24 0 0 0 10.86-28.52c30.09-102.53-28.63-210-131.16-240.14S63.9 64.9 33.8 167.43a193.89 193.89 0 0 0-6.27 29.86z"/><path class="cls-5" d="M48.88 203.56a171.53 171.53 0 1 1 324 95.1l10.08 3a181.9 181.9 0 1 0-338-130.93 183.53 183.53 0 0 0-6.16 29.87z"/><path class="cls-6" d="M61.53 207.27a158.58 158.58 0 1 1 298.71 87.67l12.65 3.71a171.53 171.53 0 1 0-324-95.1z"/><path class="cls-7" d="M264.11 69.75A158.67 158.67 0 0 0 61.53 207.27l10.79 3.17a147.13 147.13 0 1 1 277.13 81.34l10.79 3.16a158.67 158.67 0 0 0-96.13-225.19z"/></g></g></svg>